<svg id="eoLTNReZP9B1" xmlns="http://www.w3.org/2000/svg" xmlns:xlink="http://www.w3.org/1999/xlink" viewBox="0 0 849 896" shape-rendering="geometricPrecision" text-rendering="geometricPrecision"><defs><filter id="eoLTNReZP9B3-filter" x="-150%" width="400%" y="-150%" height="400%"><feGaussianBlur id="eoLTNReZP9B3-filter-drop-shadow-0-blur" in="SourceAlpha" stdDeviation="30,30"/><feOffset id="eoLTNReZP9B3-filter-drop-shadow-0-offset" dx="0" dy="4" result="tmp"/><feFlood id="eoLTNReZP9B3-filter-drop-shadow-0-flood" flood-color="rgba(0,0,0,0.2)"/><feComposite id="eoLTNReZP9B3-filter-drop-shadow-0-composite" operator="in" in2="tmp"/><feMerge id="eoLTNReZP9B3-filter-drop-shadow-0-merge" result="result"><feMergeNode id="eoLTNReZP9B3-filter-drop-shadow-0-merge-node-1"/><feMergeNode id="eoLTNReZP9B3-filter-drop-shadow-0-merge-node-2" in="SourceGraphic"/></feMerge></filter><filter id="eoLTNReZP9B15-filter" x="-150%" width="400%" y="-150%" height="400%"><feGaussianBlur id="eoLTNReZP9B15-filter-drop-shadow-0-blur" in="SourceAlpha" stdDeviation="30,30"/><feOffset id="eoLTNReZP9B15-filter-drop-shadow-0-offset" dx="0" dy="4" result="tmp"/><feFlood id="eoLTNReZP9B15-filter-drop-shadow-0-flood" flood-color="rgba(0,0,0,0.25)"/><feComposite id="eoLTNReZP9B15-filter-drop-shadow-0-composite" operator="in" in2="tmp"/><feMerge id="eoLTNReZP9B15-filter-drop-shadow-0-merge" result="result"><feMergeNode id="eoLTNReZP9B15-filter-drop-shadow-0-merge-node-1"/><feMergeNode id="eoLTNReZP9B15-filter-drop-shadow-0-merge-node-2" in="SourceGraphic"/></feMerge></filter><filter id="eoLTNReZP9B28-filter" x="-150%" width="400%" y="-150%" height="400%"><feGaussianBlur id="eoLTNReZP9B28-filter-drop-shadow-0-blur" in="SourceAlpha" stdDeviation="30,30"/><feOffset id="eoLTNReZP9B28-filter-drop-shadow-0-offset" dx="0" dy="4" result="tmp"/><feFlood id="eoLTNReZP9B28-filter-drop-shadow-0-flood" flood-color="rgba(0,0,0,0.2)"/><feComposite id="eoLTNReZP9B28-filter-drop-shadow-0-composite" operator="in" in2="tmp"/><feMerge id="eoLTNReZP9B28-filter-drop-shadow-0-merge" result="result"><feMergeNode id="eoLTNReZP9B28-filter-drop-shadow-0-merge-node-1"/><feMergeNode id="eoLTNReZP9B28-filter-drop-shadow-0-merge-node-2" in="SourceGraphic"/></feMerge></filter><filter id="eoLTNReZP9B33-filter" x="-150%" width="400%" y="-150%" height="400%"><feGaussianBlur id="eoLTNReZP9B33-filter-drop-shadow-0-blur" in="SourceAlpha" stdDeviation="30,30"/><feOffset id="eoLTNReZP9B33-filter-drop-shadow-0-offset" dx="0" dy="4" result="tmp"/><feFlood id="eoLTNReZP9B33-filter-drop-shadow-0-flood" flood-color="rgba(0,0,0,0.2)"/><feComposite id="eoLTNReZP9B33-filter-drop-shadow-0-composite" operator="in" in2="tmp"/><feMerge id="eoLTNReZP9B33-filter-drop-shadow-0-merge" result="result"><feMergeNode id="eoLTNReZP9B33-filter-drop-shadow-0-merge-node-1"/><feMergeNode id="eoLTNReZP9B33-filter-drop-shadow-0-merge-node-2" in="SourceGraphic"/></feMerge></filter><filter id="eoLTNReZP9B38-filter" x="-150%" width="400%" y="-150%" height="400%"><feGaussianBlur id="eoLTNReZP9B38-filter-drop-shadow-0-blur" in="SourceAlpha" stdDeviation="30,30"/><feOffset id="eoLTNReZP9B38-filter-drop-shadow-0-offset" dx="0" dy="4" result="tmp"/><feFlood id="eoLTNReZP9B38-filter-drop-shadow-0-flood" flood-color="rgba(0,0,0,0.2)"/><feComposite id="eoLTNReZP9B38-filter-drop-shadow-0-composite" operator="in" in2="tmp"/><feMerge id="eoLTNReZP9B38-filter-drop-shadow-0-merge" result="result"><feMergeNode id="eoLTNReZP9B38-filter-drop-shadow-0-merge-node-1"/><feMergeNode id="eoLTNReZP9B38-filter-drop-shadow-0-merge-node-2" in="SourceGraphic"/></feMerge></filter><filter id="eoLTNReZP9B45-filter" x="-150%" width="400%" y="-150%" height="400%"><feGaussianBlur id="eoLTNReZP9B45-filter-drop-shadow-0-blur" in="SourceAlpha" stdDeviation="30,30"/><feOffset id="eoLTNReZP9B45-filter-drop-shadow-0-offset" dx="0" dy="4" result="tmp"/><feFlood id="eoLTNReZP9B45-filter-drop-shadow-0-flood" flood-color="rgba(0,0,0,0.2)"/><feComposite id="eoLTNReZP9B45-filter-drop-shadow-0-composite" operator="in" in2="tmp"/><feMerge id="eoLTNReZP9B45-filter-drop-shadow-0-merge" result="result"><feMergeNode id="eoLTNReZP9B45-filter-drop-shadow-0-merge-node-1"/><feMergeNode id="eoLTNReZP9B45-filter-drop-shadow-0-merge-node-2" in="SourceGraphic"/></feMerge></filter></defs><rect width="427" height="823" rx="22.0377" ry="22.0377" transform="matrix(0-1 1 0 0 735)" fill="#f9f9f9"/><g filter="url(#eoLTNReZP9B3-filter)"><g><rect width="191" height="84" rx="12.6831" ry="12.6831" transform="matrix(0-1 1 0 694 775)" fill="#fcfcfc"/></g><circle r="13.8095" transform="matrix(0 1-1 0 736.5 623.5)" fill="#fff" stroke="#2580ff" stroke-width="1.38095"/><ellipse rx="9.75072" ry="9.66667" transform="matrix(0 1-1 0 736.502 623.628)" fill="#2580ff"/><circle r="13.8095" transform="matrix(0 1-1 0 736.497 658.023)" fill="#033046" stroke="#033046" stroke-width="1.38095"/><ellipse rx="9.75072" ry="9.66667" transform="matrix(0 1-1 0 736.499 658.151)" fill="#033046"/><circle r="13.8095" transform="matrix(0 1-1 0 736.503 692.547)" fill="#fcc559" stroke="#fcc559" stroke-width="1.38095"/><ellipse rx="9.75072" ry="9.66667" transform="matrix(0 1-1 0 736.495 692.675)" fill="#fcc559"/><circle r="14.5" transform="matrix(0 1-1 0 736.503 735.35699)" fill="#fff"/><path d="M736.502,729.279v12.084" fill="none" stroke="#afafaf" stroke-width="1.38095" stroke-linecap="round"/><path d="M742.302,735.078h-12.084" fill="none" stroke="#afafaf" stroke-width="1.38095" stroke-linecap="round"/></g><g filter="url(#eoLTNReZP9B15-filter)"><g><rect width="230" height="292" rx="11" ry="11" transform="matrix(-1 0 0-1 663 876)" fill="#fcfcfc"/></g><circle id="eoLTNReZP9B18" r="52.5" transform="translate(548.5 685)" fill="#ff7000"/><circle id="eoLTNReZP9B19" r="52.5" transform="translate(548.5 685)" opacity="0" fill="#fdff00"/><circle id="eoLTNReZP9B20" r="52.5" transform="translate(548.5 685)" opacity="0" fill="#f000ff"/><circle id="eoLTNReZP9B21" r="52.5" transform="translate(548.5 685)" opacity="0" fill="#3700ff"/><circle id="eoLTNReZP9B22" r="52.5" transform="translate(548.5 685)" opacity="0" fill="#ff1a00"/><circle r="52.5" transform="translate(548.5 685)" fill="none" stroke="#2580ff" stroke-width="5"/><g transform="translate(.000001 0)"><path d="M496.949,803.711v8.474m4.237-4.237h-8.474m16.948,0c0,7.02-5.691,12.711-12.711,12.711-7.021,0-12.712-5.691-12.712-12.711c0-7.021,5.691-12.712,12.712-12.712c7.02,0,12.711,5.691,12.711,12.712Z" fill="none" stroke="#2580ff" stroke-width="2.11856" stroke-linecap="round" stroke-linejoin="round"/><path d="M532.162,818h2.482v-17.668h6.276v-2.235h-15.034v2.235h6.276v17.668Zm12.503.276c2.179,0,3.641-.979,4.414-2.317h.055v2.041h2.4v-14.344h-2.4v8.441c0,2.441-1.476,4.055-3.738,4.055-2.207,0-3.296-1.283-3.296-3.614v-8.882h-2.4v9.31c0,3.269,1.82,5.31,4.965,5.31ZM560.017,818h2.4v-19.903h-2.4v19.903Zm11.303.276c3.959,0,6.634-2.869,6.634-7.448v-.028c0-4.579-2.689-7.42-6.648-7.42-3.958,0-6.634,2.855-6.634,7.42v.028c0,4.565,2.662,7.448,6.648,7.448Zm.014-2.124c-2.538,0-4.207-1.945-4.207-5.324v-.028c0-3.351,1.683-5.296,4.179-5.296c2.538,0,4.193,1.931,4.193,5.296v.028c0,3.365-1.641,5.324-4.165,5.324Zm14.834,6.951c3.89,0,6.331-2.179,6.331-5.503v-13.944h-2.4v2.427h-.055c-.883-1.6-2.483-2.703-4.51-2.703-3.641,0-6.138,2.896-6.138,7.351v.014c0,4.483,2.469,7.393,6.083,7.393c2.055,0,3.71-1.021,4.565-2.607h.055v1.835c0,2.22-1.434,3.613-3.958,3.613-1.959,0-3.324-.634-3.78-1.669l-.055-.124h-2.413l.027.124c.469,2.124,2.704,3.793,6.248,3.793Zm-.165-7.089c-2.552,0-4.152-2.014-4.152-5.269v-.014c0-3.186,1.6-5.227,4.152-5.227c2.427,0,4.096,2.069,4.096,5.227v.014c0,3.186-1.655,5.269-4.096,5.269Zm15.262,2.262c3.958,0,6.634-2.869,6.634-7.448v-.028c0-4.579-2.69-7.42-6.648-7.42-3.959,0-6.634,2.855-6.634,7.42v.028c0,4.565,2.662,7.448,6.648,7.448Zm.013-2.124c-2.537,0-4.206-1.945-4.206-5.324v-.028c0-3.351,1.682-5.296,4.179-5.296c2.538,0,4.193,1.931,4.193,5.296v.028c0,3.365-1.642,5.324-4.166,5.324Z" fill="#2580ff"/></g></g><g filter="url(#eoLTNReZP9B28-filter)"><rect width="183" height="51" rx="11" ry="11" transform="matrix(-1 0 0-1 764 280)" fill="#fcfcfc"/><path d="M604.465,259.146c2.045,0,3.527-1.283,3.691-3.082l.006-.064h-1.723l-.011.059c-.229,1.002-.944,1.587-1.963,1.587-1.354,0-2.221-1.101-2.221-2.882v-.006c0-1.77.867-2.86,2.221-2.86c1.055,0,1.746.61,1.945,1.541l.024.1h1.722l-.006-.053c-.164-1.793-1.634-3.088-3.685-3.088-2.467,0-4.026,1.641-4.026,4.366v.006c0,2.724,1.553,4.376,4.026,4.376Zm6.665-.017c.949,0,1.594-.445,1.916-1.166h.035v1.037h1.711v-6.281h-1.711v3.609c0,.82-.486,1.383-1.254,1.383-.767,0-1.154-.475-1.154-1.295v-3.697h-1.711v4.054c0,1.471.785,2.356,2.168,2.356Zm4.655,1.922h1.711v-3.123h.035c.34.744,1.049,1.201,1.946,1.201c1.57,0,2.543-1.231,2.543-3.27v-.005c0-2.045-.973-3.264-2.567-3.264-.89,0-1.576.463-1.916,1.224h-.041v-1.095h-1.711v8.332Zm3.106-3.34c-.832,0-1.401-.715-1.401-1.846v-.006c0-1.136.569-1.851,1.401-1.851.849,0,1.389.697,1.389,1.846v.005c0,1.143-.54,1.852-1.389,1.852Zm6.782,1.418c1.899,0,3.112-1.219,3.112-3.27v-.011c0-2.034-1.237-3.258-3.118-3.258-1.875,0-3.105,1.236-3.105,3.258v.011c0,2.045,1.201,3.27,3.111,3.27Zm.006-1.342c-.844,0-1.377-.697-1.377-1.928v-.011c0-1.213.539-1.916,1.365-1.916.832,0,1.377.703,1.377,1.916v.011c0,1.225-.533,1.928-1.365,1.928Zm3.87,1.213h1.711v-3.609c0-.821.487-1.383,1.254-1.383.768,0,1.154.469,1.154,1.289v3.703h1.711v-4.055c0-1.47-.785-2.355-2.168-2.355-.949,0-1.593.439-1.916,1.16h-.035v-1.031h-1.711v6.281Zm9.654.129c1.793,0,2.66-1.061,2.853-1.986l.018-.065h-1.57l-.012.035c-.123.352-.551.739-1.254.739-.873,0-1.418-.586-1.436-1.588h4.325v-.528c0-1.898-1.155-3.146-2.995-3.146-1.839,0-3.017,1.277-3.017,3.275v.006c0,2.01,1.166,3.258,3.088,3.258Zm-.041-5.262c.709,0,1.218.451,1.324,1.319h-2.666c.111-.85.639-1.319,1.342-1.319Zm6.313,5.262c1.617,0,2.748-.809,2.748-2.039v-.006c0-.926-.539-1.441-1.851-1.717l-1.067-.228c-.632-.135-.849-.346-.849-.668v-.006c0-.404.369-.668.961-.668.633,0,1.002.34,1.06.791l.006.047h1.576v-.059c-.041-1.101-.972-1.986-2.642-1.986-1.6,0-2.631.773-2.631,1.969v.005c0,.938.615,1.547,1.834,1.805l1.066.223c.615.135.826.328.826.662v.006c0,.404-.392.656-1.037.656-.685,0-1.054-.287-1.166-.779l-.011-.053h-1.67l.006.053c.134,1.189,1.101,1.992,2.841,1.992Z" fill="#2580ff"/><rect width="27" height="15.8824" rx="7.94118" ry="7.94118" transform="translate(719 247.059)" fill="#e2e6eb"/><circle r="7.59118" transform="translate(726.941 255)" fill="#fff" stroke="#afafaf" stroke-width="0.7"/></g><g filter="url(#eoLTNReZP9B33-filter)"><rect width="183" height="51" rx="11" ry="11" transform="matrix(-1 0 0-1 764 399)" fill="#fcfcfc"/><path d="M600.703,378h1.77v-2.666h1.629c1.781,0,2.97-1.148,2.97-2.889v-.011c0-1.741-1.189-2.889-2.97-2.889h-3.399v8.455Zm2.965-7.055c1.014,0,1.611.534,1.611,1.494v.012c0,.961-.597,1.5-1.611,1.5h-1.195v-3.006h1.195Zm6.858,7.184c1.899,0,3.112-1.219,3.112-3.27v-.011c0-2.034-1.237-3.258-3.117-3.258-1.875,0-3.106,1.236-3.106,3.258v.011c0,2.045,1.201,3.27,3.111,3.27Zm.006-1.342c-.843,0-1.377-.697-1.377-1.928v-.011c0-1.213.539-1.916,1.366-1.916.832,0,1.377.703,1.377,1.916v.011c0,1.225-.534,1.928-1.366,1.928ZM614.444,378h1.711v-8.455h-1.711v8.455Zm4.046-6.984l1.441-2.004h-1.518l-1.072,2.004h1.149ZM617.224,378h1.711v-6.281h-1.711v6.281Zm5.235.129c.358,0,.633-.035.827-.065v-1.253c-.106.011-.217.029-.37.029-.515,0-.779-.199-.779-.785v-3.047h1.149v-1.289h-1.149v-1.535h-1.728v1.535h-.873v1.289h.873v3.234c0,1.348.656,1.887,2.05,1.887ZM625,370.91c.515,0,.914-.404.914-.89c0-.487-.399-.891-.914-.891-.516,0-.914.404-.914.891c0,.486.398.89.914.89Zm-.856,7.09h1.711v-6.281h-1.711v6.281Zm5.611.129c1.675,0,2.759-1.043,2.841-2.414v-.035h-1.593l-.006.052c-.117.633-.545,1.055-1.231,1.055-.843,0-1.371-.697-1.371-1.928v-.005c0-1.202.528-1.922,1.365-1.922.709,0,1.125.457,1.231,1.054l.012.053h1.588v-.041c-.065-1.359-1.149-2.408-2.854-2.408-1.881,0-3.082,1.248-3.082,3.258v.006c0,2.027,1.184,3.275,3.1,3.275Zm5.417-.029c.826,0,1.494-.393,1.851-1.038h.035v.938h1.711v-4.307c0-1.265-1.048-2.103-2.672-2.103-1.658,0-2.654.832-2.748,1.992l-.005.07h1.564l.012-.052c.082-.405.469-.704,1.107-.704.668,0,1.031.346,1.031.903v.387l-1.552.093c-1.559.1-2.444.768-2.444,1.91v.012c0,1.108.85,1.899,2.11,1.899Zm-.416-1.987v-.011c0-.446.345-.727,1.008-.768l1.294-.082v.451c0,.656-.562,1.149-1.33,1.149-.591,0-.972-.276-.972-.739Zm7.585,2.016c1.617,0,2.748-.809,2.748-2.039v-.006c0-.926-.539-1.441-1.852-1.717l-1.066-.228c-.633-.135-.85-.346-.85-.668v-.006c0-.404.369-.668.961-.668.633,0,1.002.34,1.061.791l.006.047h1.576v-.059c-.041-1.101-.973-1.986-2.643-1.986-1.599,0-2.631.773-2.631,1.969v.005c0,.938.616,1.547,1.834,1.805l1.067.223c.615.135.826.328.826.662v.006c0,.404-.393.656-1.037.656-.686,0-1.055-.287-1.166-.779l-.012-.053h-1.67l.006.053c.135,1.189,1.102,1.992,2.842,1.992Z" fill="#2580ff"/><rect width="27" height="15.8824" rx="7.94118" ry="7.94118" transform="translate(719 366.059)" fill="#e2e6eb"/><circle r="7.59118" transform="translate(726.941 374)" fill="#fff" stroke="#afafaf" stroke-width="0.7"/></g><g id="eoLTNReZP9B38" transform="matrix(1.001495 0 0 1.038668-2.774462-12.223695)" filter="url(#eoLTNReZP9B38-filter)"><rect width="178.735801" height="52.939201" rx="11" ry="11" transform="matrix(-1.004062 0 0-1 763.999971 341.447594)" fill="#fcfcfc"/><path d="M595.82058,318.556145h1.671436v-6.609547h2.313792v-1.378115h-6.293285v1.378115h2.308057v6.609547Zm6.052402.121261c1.694377,0,2.513709-1.002042,2.69642-1.876269l.016386-.06063h-1.483809l-.010651.032773c-.116345.331829-.520276.697251-1.184754.697251-.825066,0-1.339607-.553049-1.355993-1.499377h4.085187v-.498972c0-1.792698-1.090531-2.971716-2.829152-2.971716-1.737802,0-2.850454,1.206056-2.850454,3.093796v.005735c0,1.898391,1.101181,3.077409,2.91682,3.077409Zm-.038509-4.970884c.670213,0,1.151161.426872,1.251119,1.245384h-2.518625c.104875-.802125.603028-1.245384,1.267506-1.245384Zm3.562454,4.849623h1.615721v-7.987662h-1.615721v7.987662Zm5.659942-6.598896l1.355993-1.892655h-1.43383l-1.006958,1.892655h1.084795Zm-.365422,6.720157c1.693558,0,2.512889-1.002042,2.6956-1.876269l.016387-.06063h-1.48299l-.011471.032773c-.116345.331829-.520275.697251-1.184753.697251-.824247,0-1.339607-.553049-1.355994-1.499377h4.085187v-.498972c0-1.792698-1.09053-2.971716-2.828332-2.971716-1.738622,0-2.851274,1.206056-2.851274,3.093796v.005735c0,1.898391,1.102001,3.077409,2.91764,3.077409Zm-.038509-4.970884c.669394,0,1.151161.426872,1.2503,1.245384h-2.518625c.105694-.802125.603847-1.245384,1.268325-1.245384Zm3.954913,4.849623h1.615722v-4.716891h1.14051v-1.217527h-1.179019v-.414581c0-.426872.238426-.653827.775088-.653827.149118,0,.304791.005735.415401.027857v-1.068408c-.188446-.038509-.515359-.066366-.813596-.066366-1.401057,0-1.954106.536662-1.954106,1.699294v.476031h-.80868v1.217527h.80868v4.716891Zm5.798409.121261c1.793517,0,2.938942-1.15116,2.938942-3.088879v-.010652c0-1.920513-1.167547-3.077409-2.944677-3.077409-1.771395,0-2.934026,1.167548-2.934026,3.077409v.010652c0,1.931983,1.134774,3.088879,2.939761,3.088879Zm.004916-1.267505c-.79639,0-1.300279-.658743-1.300279-1.821374v-.010652c0-1.146244.508805-1.809903,1.289628-1.809903.785739,0,1.301098.663659,1.301098,1.809903v.010652c0,1.156896-.503888,1.821374-1.290447,1.821374Zm3.656677,1.146244h1.616541v-3.410057c0-.775088.458826-1.306834,1.183934-1.306834s1.09053.443258,1.09053,1.218346v3.498545h1.616541v-3.831194c0-1.388767-.741495-2.224485-2.048329-2.224485-.896348,0-1.505112.414582-1.809903,1.095446h-.032773v-.974185h-1.616541v5.934418Zm9.141281.121261c1.793517,0,2.939762-1.15116,2.939762-3.088879v-.010652c0-1.920513-1.168367-3.077409-2.944678-3.077409-1.771394,0-2.934026,1.167548-2.934026,3.077409v.010652c0,1.931983,1.134774,3.088879,2.938942,3.088879Zm.005736-1.267505c-.79721,0-1.301099-.658743-1.301099-1.821374v-.010652c0-1.146244.509624-1.809903,1.290447-1.809903.785739,0,1.300279.663659,1.300279,1.809903v.010652c0,1.156896-.503888,1.821374-1.289627,1.821374Z" transform="translate(4.992535 0)" fill="#2580ff"/><g><rect width="25.50669" height="15.003925" rx="9.15622" ry="9.15622" transform="translate(728.675773 307.476246)" fill="#e2e6eb"/><rect id="eoLTNReZP9B43" width="25.50669" height="15.003925" rx="9.15622" ry="9.15622" transform="translate(728.675773 307.476246)" opacity="0" fill="#30e02d"/><circle id="eoLTNReZP9B44" r="7.171338" transform="translate(734.726288 314.978)" fill="#fff" stroke="#afafaf" stroke-width="0.807104"/></g></g><g filter="url(#eoLTNReZP9B45-filter)"><rect id="eoLTNReZP9B46" width="448.592" height="458.092" rx="20" ry="20" transform="matrix(1 0 0 0.879535 61 118.592029)" fill="#fff"/><g id="eoLTNReZP9B47" transform="translate(0 60)"><path d="M112.027,155h1.306v-8.356h.037L119.195,155h1.284v-10.587h-1.306v8.357h-.037l-5.825-8.357h-1.284v10.587Zm13.47.147c2.106,0,3.529-1.526,3.529-3.962v-.015c0-2.436-1.43-3.947-3.536-3.947s-3.529,1.519-3.529,3.947v.015c0,2.428,1.416,3.962,3.536,3.962Zm.008-1.13c-1.35,0-2.238-1.035-2.238-2.832v-.015c0-1.783.895-2.817,2.223-2.817c1.35,0,2.23,1.027,2.23,2.817v.015c0,1.79-.873,2.832-2.215,2.832Zm4.812.983h1.277v-4.784c0-1.063.734-1.863,1.746-1.863.947,0,1.563.609,1.563,1.533v5.114h1.276v-4.85c0-1.041.712-1.797,1.725-1.797c1.005,0,1.584.624,1.584,1.673v4.974h1.277v-5.268c0-1.518-.976-2.509-2.487-2.509-1.071,0-1.966.55-2.392,1.467h-.029c-.331-.931-1.101-1.467-2.143-1.467-.983,0-1.746.506-2.091,1.262h-.029v-1.115h-1.277v7.63Zm15.87.147c1.951,0,3.242-1.556,3.242-3.962v-.007c0-2.407-1.305-3.955-3.22-3.955-1.079,0-1.967.543-2.443,1.423h-.03v-4.233h-1.276v10.587h1.276v-1.291h.03c.476.887,1.328,1.438,2.421,1.438Zm-.25-1.13c-1.291,0-2.208-1.123-2.208-2.832v-.007c0-1.703.924-2.825,2.208-2.825c1.35,0,2.187,1.086,2.187,2.825v.007c0,1.753-.837,2.832-2.187,2.832Zm4.776.983h1.277v-4.71c0-1.159.646-1.849,1.636-1.849.308,0,.58.037.682.073v-1.24c-.102-.014-.293-.051-.513-.051-.859,0-1.519.558-1.776,1.438h-.029v-1.291h-1.277v7.63Zm7.41.147c1.666,0,2.913-.998,3.163-2.26l.014-.073h-1.254l-.022.066c-.22.653-.903,1.137-1.871,1.137-1.358,0-2.223-.917-2.253-2.487h5.496v-.47c0-2.289-1.27-3.837-3.353-3.837-2.084,0-3.434,1.622-3.434,3.984v.007c0,2.399,1.321,3.933,3.514,3.933Zm-.088-6.794c1.116,0,1.937.697,2.062,2.179h-4.175c.14-1.423,1.006-2.179,2.113-2.179Zm10.873,6.794c1.666,0,2.913-.998,3.162-2.26l.015-.073h-1.254l-.022.066c-.221.653-.903,1.137-1.871,1.137-1.358,0-2.223-.917-2.253-2.487h5.495v-.47c0-2.289-1.269-3.837-3.352-3.837-2.084,0-3.434,1.622-3.434,3.984v.007c0,2.399,1.321,3.933,3.514,3.933Zm-.088-6.794c1.115,0,1.937.697,2.062,2.179h-4.175c.14-1.423,1.005-2.179,2.113-2.179ZM173.472,155h1.276v-4.49c0-1.299.785-2.157,1.989-2.157c1.173,0,1.753.682,1.753,1.922v4.725h1.277v-4.952c0-1.739-.969-2.825-2.642-2.825-1.159,0-1.936.521-2.347,1.233h-.03v-1.086h-1.276v7.63Zm13.485.147c.249,0,.52-.03.682-.052v-1.034c-.11.007-.257.029-.411.029-.682,0-1.042-.227-1.042-1.042v-4.622h1.453v-1.056h-1.453v-2.062h-1.32v2.062h-1.116v1.056h1.116v4.63c0,1.46.689,2.091,2.091,2.091Zm4.137,0c1.02,0,1.937-.551,2.385-1.387h.029v1.24h1.277v-5.275c0-1.526-1.13-2.502-2.935-2.502-1.797,0-2.891,1.013-3.001,2.267l-.007.081h1.233l.014-.066c.147-.682.763-1.152,1.746-1.152c1.064,0,1.673.565,1.673,1.497v.638l-2.186.125c-1.754.102-2.766.917-2.766,2.215v.015c0,1.387,1.02,2.304,2.538,2.304Zm-1.232-2.304v-.015c0-.711.587-1.166,1.607-1.225l2.039-.125v.624c0,1.108-.924,1.937-2.127,1.937-.918,0-1.519-.462-1.519-1.196ZM196.406,155h1.277v-4.71c0-1.159.645-1.849,1.636-1.849.308,0,.579.037.682.073v-1.24c-.103-.014-.293-.051-.513-.051-.859,0-1.519.558-1.776,1.438h-.029v-1.291h-1.277v7.63Zm5.341-8.921c.448,0,.8-.36.8-.8c0-.448-.352-.8-.8-.8-.44,0-.799.352-.799.8c0,.44.359.8.799.8Zm-1.724,11.496c1.629,0,2.363-.704,2.363-2.252v-7.953h-1.277v7.967c0,.852-.301,1.108-1.13,1.108h-.198v1.123c.081.007.161.007.242.007Zm7.241-2.428c1.666,0,2.913-.998,3.163-2.26l.014-.073h-1.254l-.022.066c-.22.653-.903,1.137-1.871,1.137-1.357,0-2.223-.917-2.253-2.487h5.496v-.47c0-2.289-1.27-3.837-3.353-3.837-2.084,0-3.434,1.622-3.434,3.984v.007c0,2.399,1.321,3.933,3.514,3.933Zm-.088-6.794c1.116,0,1.937.697,2.062,2.179h-4.175c.14-1.423,1.006-2.179,2.113-2.179Zm7.132,6.794c.249,0,.521-.03.682-.052v-1.034c-.11.007-.257.029-.411.029-.682,0-1.042-.227-1.042-1.042v-4.622h1.453v-1.056h-1.453v-2.062h-1.32v2.062h-1.115v1.056h1.115v4.63c0,1.46.689,2.091,2.091,2.091Zm4.138,0c1.019,0,1.936-.551,2.384-1.387h.029v1.24h1.277v-5.275c0-1.526-1.13-2.502-2.935-2.502-1.797,0-2.89,1.013-3,2.267l-.008.081h1.233l.014-.066c.147-.682.763-1.152,1.747-1.152c1.063,0,1.672.565,1.672,1.497v.638l-2.186.125c-1.753.102-2.766.917-2.766,2.215v.015c0,1.387,1.02,2.304,2.539,2.304Zm-1.233-2.304v-.015c0-.711.587-1.166,1.607-1.225l2.039-.125v.624c0,1.108-.924,1.937-2.127,1.937-.917,0-1.519-.462-1.519-1.196Z" fill="#ddd"/><path d="M112.027,155h1.306v-8.356h.037L119.195,155h1.284v-10.587h-1.306v8.357h-.037l-5.825-8.357h-1.284v10.587Zm13.47.147c2.106,0,3.529-1.526,3.529-3.962v-.015c0-2.436-1.43-3.947-3.536-3.947s-3.529,1.519-3.529,3.947v.015c0,2.428,1.416,3.962,3.536,3.962Zm.008-1.13c-1.35,0-2.238-1.035-2.238-2.832v-.015c0-1.783.895-2.817,2.223-2.817c1.35,0,2.23,1.027,2.23,2.817v.015c0,1.79-.873,2.832-2.215,2.832Zm4.812.983h1.277v-4.784c0-1.063.734-1.863,1.746-1.863.947,0,1.563.609,1.563,1.533v5.114h1.276v-4.85c0-1.041.712-1.797,1.725-1.797c1.005,0,1.584.624,1.584,1.673v4.974h1.277v-5.268c0-1.518-.976-2.509-2.487-2.509-1.071,0-1.966.55-2.392,1.467h-.029c-.331-.931-1.101-1.467-2.143-1.467-.983,0-1.746.506-2.091,1.262h-.029v-1.115h-1.277v7.63Zm15.87.147c1.951,0,3.242-1.556,3.242-3.962v-.007c0-2.407-1.305-3.955-3.22-3.955-1.079,0-1.967.543-2.443,1.423h-.03v-4.233h-1.276v10.587h1.276v-1.291h.03c.476.887,1.328,1.438,2.421,1.438Zm-.25-1.13c-1.291,0-2.208-1.123-2.208-2.832v-.007c0-1.703.924-2.825,2.208-2.825c1.35,0,2.187,1.086,2.187,2.825v.007c0,1.753-.837,2.832-2.187,2.832Zm4.776.983h1.277v-4.71c0-1.159.646-1.849,1.636-1.849.308,0,.58.037.682.073v-1.24c-.102-.014-.293-.051-.513-.051-.859,0-1.519.558-1.776,1.438h-.029v-1.291h-1.277v7.63Zm7.41.147c1.666,0,2.913-.998,3.163-2.26l.014-.073h-1.254l-.022.066c-.22.653-.903,1.137-1.871,1.137-1.358,0-2.223-.917-2.253-2.487h5.496v-.47c0-2.289-1.27-3.837-3.353-3.837-2.084,0-3.434,1.622-3.434,3.984v.007c0,2.399,1.321,3.933,3.514,3.933Zm-.088-6.794c1.116,0,1.937.697,2.062,2.179h-4.175c.14-1.423,1.006-2.179,2.113-2.179Zm10.873,6.794c1.666,0,2.913-.998,3.162-2.26l.015-.073h-1.254l-.022.066c-.221.653-.903,1.137-1.871,1.137-1.358,0-2.223-.917-2.253-2.487h5.495v-.47c0-2.289-1.269-3.837-3.352-3.837-2.084,0-3.434,1.622-3.434,3.984v.007c0,2.399,1.321,3.933,3.514,3.933Zm-.088-6.794c1.115,0,1.937.697,2.062,2.179h-4.175c.14-1.423,1.005-2.179,2.113-2.179ZM173.472,155h1.276v-4.49c0-1.299.785-2.157,1.989-2.157c1.173,0,1.753.682,1.753,1.922v4.725h1.277v-4.952c0-1.739-.969-2.825-2.642-2.825-1.159,0-1.936.521-2.347,1.233h-.03v-1.086h-1.276v7.63Zm13.485.147c.249,0,.52-.03.682-.052v-1.034c-.11.007-.257.029-.411.029-.682,0-1.042-.227-1.042-1.042v-4.622h1.453v-1.056h-1.453v-2.062h-1.32v2.062h-1.116v1.056h1.116v4.63c0,1.46.689,2.091,2.091,2.091Zm4.137,0c1.02,0,1.937-.551,2.385-1.387h.029v1.24h1.277v-5.275c0-1.526-1.13-2.502-2.935-2.502-1.797,0-2.891,1.013-3.001,2.267l-.007.081h1.233l.014-.066c.147-.682.763-1.152,1.746-1.152c1.064,0,1.673.565,1.673,1.497v.638l-2.186.125c-1.754.102-2.766.917-2.766,2.215v.015c0,1.387,1.02,2.304,2.538,2.304Zm-1.232-2.304v-.015c0-.711.587-1.166,1.607-1.225l2.039-.125v.624c0,1.108-.924,1.937-2.127,1.937-.918,0-1.519-.462-1.519-1.196ZM196.406,155h1.277v-4.71c0-1.159.645-1.849,1.636-1.849.308,0,.579.037.682.073v-1.24c-.103-.014-.293-.051-.513-.051-.859,0-1.519.558-1.776,1.438h-.029v-1.291h-1.277v7.63Zm5.341-8.921c.448,0,.8-.36.8-.8c0-.448-.352-.8-.8-.8-.44,0-.799.352-.799.8c0,.44.359.8.799.8Zm-1.724,11.496c1.629,0,2.363-.704,2.363-2.252v-7.953h-1.277v7.967c0,.852-.301,1.108-1.13,1.108h-.198v1.123c.081.007.161.007.242.007Zm7.241-2.428c1.666,0,2.913-.998,3.163-2.26l.014-.073h-1.254l-.022.066c-.22.653-.903,1.137-1.871,1.137-1.357,0-2.223-.917-2.253-2.487h5.496v-.47c0-2.289-1.27-3.837-3.353-3.837-2.084,0-3.434,1.622-3.434,3.984v.007c0,2.399,1.321,3.933,3.514,3.933Zm-.088-6.794c1.116,0,1.937.697,2.062,2.179h-4.175c.14-1.423,1.006-2.179,2.113-2.179Zm7.132,6.794c.249,0,.521-.03.682-.052v-1.034c-.11.007-.257.029-.411.029-.682,0-1.042-.227-1.042-1.042v-4.622h1.453v-1.056h-1.453v-2.062h-1.32v2.062h-1.115v1.056h1.115v4.63c0,1.46.689,2.091,2.091,2.091Zm4.138,0c1.019,0,1.936-.551,2.384-1.387h.029v1.24h1.277v-5.275c0-1.526-1.13-2.502-2.935-2.502-1.797,0-2.89,1.013-3,2.267l-.008.081h1.233l.014-.066c.147-.682.763-1.152,1.747-1.152c1.063,0,1.672.565,1.672,1.497v.638l-2.186.125c-1.753.102-2.766.917-2.766,2.215v.015c0,1.387,1.02,2.304,2.539,2.304Zm-1.233-2.304v-.015c0-.711.587-1.166,1.607-1.225l2.039-.125v.624c0,1.108-.924,1.937-2.127,1.937-.917,0-1.519-.462-1.519-1.196Z" fill-opacity="0.5"/><path d="M144.783,198.775c2.38,0,3.354-1.659,3.354-3.75v-8.294h-1.515v8.167c0,1.821-.631,2.543-1.929,2.543-.866,0-1.533-.379-2.037-1.262l-1.01.685c.649,1.28,1.713,1.911,3.137,1.911Zm9.06,0c1.208,0,2.073-.631,2.885-1.587h.054l.126,1.371h1.226v-8.763h-1.496v6.202c-.812,1.028-1.443,1.479-2.326,1.479-1.154,0-1.659-.703-1.659-2.326v-5.355h-1.497v5.553c0,2.236.83,3.426,2.687,3.426Zm9.357,0c1.1,0,2.055-.559,2.885-1.262h.054l.144,1.046h1.226v-5.392c0-2.163-.919-3.588-3.047-3.588-1.406,0-2.633.595-3.444,1.136l.577,1.01c.685-.451,1.605-.902,2.615-.902c1.424,0,1.785,1.064,1.803,2.164-3.751.415-5.374,1.352-5.374,3.3c0,1.586,1.1,2.488,2.561,2.488Zm.415-1.226c-.848,0-1.515-.379-1.515-1.352c0-1.136.956-1.803,3.913-2.146v2.38c-.848.739-1.551,1.118-2.398,1.118Zm6.741,1.01h1.497v-6.347c.865-.884,1.496-1.334,2.38-1.334c1.154,0,1.659.685,1.659,2.326v5.355h1.496v-5.554c0-2.236-.829-3.426-2.686-3.426-1.208,0-2.11.649-2.939,1.479h-.054l-.127-1.262h-1.226v8.763Zm13.777,0h1.388v-6.527c0-1.046-.126-2.507-.216-3.534h.072l.938,2.758l2.199,6.113h1.1l2.218-6.113.92-2.758h.072c-.09,1.027-.217,2.488-.217,3.534v6.527h1.425v-11.828h-1.893l-2.236,6.328c-.289.83-.505,1.587-.776,2.47h-.072c-.252-.883-.505-1.64-.793-2.47l-2.236-6.328h-1.893v11.828Zm15.084.216c1.1,0,2.055-.559,2.885-1.262h.054l.144,1.046h1.226v-5.392c0-2.163-.92-3.588-3.047-3.588-1.407,0-2.633.595-3.444,1.136l.577,1.01c.685-.451,1.605-.902,2.614-.902c1.425,0,1.785,1.064,1.803,2.164-3.75.415-5.373,1.352-5.373,3.3c0,1.586,1.1,2.488,2.561,2.488Zm.414-1.226c-.847,0-1.514-.379-1.514-1.352c0-1.136.955-1.803,3.912-2.146v2.38c-.847.739-1.55,1.118-2.398,1.118Zm10.276,1.226c1.208,0,2.146-.361,2.903-.902l-.523-.955c-.613.415-1.352.649-2.2.649-1.658,0-2.758-1.19-2.884-2.993h5.896c.054-.289.072-.559.072-.884c0-2.524-1.281-4.111-3.516-4.111-2.002,0-3.931,1.749-3.931,4.598c0,2.903,1.839,4.598,4.183,4.598Zm-2.704-5.355c.18-1.677,1.262-2.651,2.488-2.651c1.334,0,2.145.92,2.145,2.651h-4.633Zm10.495,5.355c2.074,0,3.209-1.19,3.209-2.614c0-1.587-1.316-2.182-2.686-2.669-1.1-.379-1.857-.703-1.857-1.497c0-.649.487-1.262,1.604-1.262.776,0,1.407.253,2.02.704l.685-.866c-.685-.577-1.623-.992-2.723-.992-1.911,0-3.029,1.082-3.029,2.489c0,1.442,1.262,2.073,2.579,2.542.991.361,1.965.739,1.965,1.641c0,.757-.559,1.352-1.713,1.352-1.082,0-1.875-.325-2.632-.956l-.686.866c.812.793,1.984,1.262,3.264,1.262Z" fill="#afafaf"/><rect width="347.089" height="52.5892" rx="26.2946" ry="26.2946" transform="translate(111.751 167.265)" fill="none" stroke="#2580ff" stroke-width="1.50255"/></g><g id="eoLTNReZP9B52" transform="translate(.000001 60.000001)"><path d="M112.027,249.631h3.558c3.148,0,4.997-1.959,4.997-5.297v-.015c0-3.323-1.864-5.275-4.997-5.275h-3.558v10.587Zm1.321-1.189v-8.209h2.149c2.399,0,3.735,1.46,3.735,4.101v.014c0,2.627-1.336,4.094-3.735,4.094h-2.149Zm11.819,1.336c1.666,0,2.913-.998,3.162-2.26l.015-.073h-1.255l-.022.066c-.22.653-.902,1.137-1.871,1.137-1.357,0-2.223-.917-2.252-2.487h5.495v-.47c0-2.289-1.269-3.837-3.353-3.837-2.083,0-3.433,1.621-3.433,3.984v.007c0,2.399,1.32,3.933,3.514,3.933Zm-.088-6.794c1.115,0,1.937.697,2.062,2.179h-4.175c.14-1.423,1.005-2.179,2.113-2.179Zm7.131,6.794c.25,0,.521-.03.683-.052v-1.034c-.11.007-.257.029-.411.029-.683,0-1.042-.227-1.042-1.042v-4.622h1.453v-1.056h-1.453v-2.062h-1.321v2.062h-1.115v1.056h1.115v4.63c0,1.46.69,2.091,2.091,2.091Zm4.138,0c1.02,0,1.937-.551,2.385-1.387h.029v1.24h1.277v-5.275c0-1.526-1.13-2.502-2.935-2.502-1.798,0-2.891,1.012-3.001,2.267l-.007.081h1.232l.015-.066c.147-.683.763-1.152,1.746-1.152c1.064,0,1.673.565,1.673,1.497v.638l-2.186.125c-1.754.102-2.766.917-2.766,2.215v.015c0,1.387,1.02,2.304,2.538,2.304Zm-1.232-2.304v-.015c0-.711.587-1.166,1.606-1.225l2.04-.125v.624c0,1.108-.924,1.937-2.128,1.937-.917,0-1.518-.462-1.518-1.196Zm6.61,2.157h1.277v-10.587h-1.277v10.587Zm3.067,0h1.276v-10.587h-1.276v10.587Zm6.14.147c1.666,0,2.913-.998,3.163-2.26l.014-.073h-1.254l-.022.066c-.22.653-.903,1.137-1.871,1.137-1.357,0-2.223-.917-2.253-2.487h5.496v-.47c0-2.289-1.27-3.837-3.353-3.837-2.084,0-3.434,1.621-3.434,3.984v.007c0,2.399,1.321,3.933,3.514,3.933Zm-.088-6.794c1.116,0,1.937.697,2.062,2.179h-4.175c.14-1.423,1.006-2.179,2.113-2.179Zm7.359,6.794c1.702,0,2.964-.94,2.964-2.275v-.007c0-1.086-.557-1.695-2.098-2.069l-1.211-.294c-.843-.205-1.188-.564-1.188-1.085v-.008c0-.675.572-1.122,1.496-1.122.947,0,1.512.491,1.615,1.232l.007.052h1.218l-.008-.096c-.095-1.276-1.159-2.252-2.832-2.252-1.65,0-2.802.932-2.802,2.245v.007c0,1.101.697,1.768,2.135,2.113l1.21.294c.866.213,1.152.521,1.152,1.071v.007c0,.69-.616,1.123-1.651,1.123-1.041,0-1.606-.448-1.76-1.211l-.015-.073h-1.277l.008.066c.154,1.365,1.24,2.282,3.037,2.282Zm10.242,0c1.093,0,1.944-.551,2.421-1.438h.03v1.291h1.276v-10.587h-1.276v4.233h-.03c-.477-.88-1.364-1.423-2.443-1.423-1.915,0-3.221,1.548-3.221,3.954v.008c0,2.406,1.292,3.962,3.243,3.962Zm.25-1.13c-1.35,0-2.187-1.079-2.187-2.832v-.008c0-1.738.837-2.824,2.187-2.824c1.283,0,2.208,1.122,2.208,2.824v.008c0,1.709-.917,2.832-2.208,2.832Zm8.341,1.13c1.666,0,2.913-.998,3.162-2.26l.015-.073h-1.254l-.022.066c-.221.653-.903,1.137-1.871,1.137-1.358,0-2.223-.917-2.253-2.487h5.496v-.47c0-2.289-1.27-3.837-3.353-3.837-2.084,0-3.434,1.621-3.434,3.984v.007c0,2.399,1.321,3.933,3.514,3.933Zm-.088-6.794c1.116,0,1.937.697,2.062,2.179h-4.175c.14-1.423,1.005-2.179,2.113-2.179Zm7.799,6.647h1.277v-10.587h-1.277v10.587Zm5.231.147c1.02,0,1.937-.551,2.385-1.387h.029v1.24h1.277v-5.275c0-1.526-1.13-2.502-2.935-2.502-1.798,0-2.891,1.012-3.001,2.267l-.007.081h1.232l.015-.066c.147-.683.763-1.152,1.746-1.152c1.064,0,1.673.565,1.673,1.497v.638l-2.186.125c-1.754.102-2.766.917-2.766,2.215v.015c0,1.387,1.02,2.304,2.538,2.304Zm-1.232-2.304v-.015c0-.711.587-1.166,1.606-1.225l2.04-.125v.624c0,1.108-.924,1.937-2.128,1.937-.917,0-1.518-.462-1.518-1.196Zm12.105,2.304c.25,0,.521-.03.683-.052v-1.034c-.111.007-.257.029-.411.029-.683,0-1.042-.227-1.042-1.042v-4.622h1.453v-1.056h-1.453v-2.062h-1.321v2.062h-1.115v1.056h1.115v4.63c0,1.46.69,2.091,2.091,2.091Zm4.138,0c1.02,0,1.937-.551,2.384-1.387h.03v1.24h1.276v-5.275c0-1.526-1.129-2.502-2.934-2.502-1.798,0-2.891,1.012-3.001,2.267l-.007.081h1.232l.015-.066c.147-.683.763-1.152,1.746-1.152c1.064,0,1.673.565,1.673,1.497v.638l-2.186.125c-1.754.102-2.766.917-2.766,2.215v.015c0,1.387,1.019,2.304,2.538,2.304Zm-1.232-2.304v-.015c0-.711.586-1.166,1.606-1.225l2.04-.125v.624c0,1.108-.925,1.937-2.128,1.937-.917,0-1.518-.462-1.518-1.196Zm6.544,2.157h1.276v-4.71c0-1.159.646-1.849,1.636-1.849.309,0,.58.037.683.073v-1.24c-.103-.014-.294-.051-.514-.051-.858,0-1.518.558-1.775,1.438h-.03v-1.291h-1.276v7.63Zm5.341-8.922c.447,0,.8-.359.8-.799c0-.448-.353-.8-.8-.8-.44,0-.8.352-.8.8c0,.44.36.799.8.799Zm-1.724,11.497c1.629,0,2.362-.704,2.362-2.252v-7.953h-1.276v7.967c0,.851-.301,1.108-1.13,1.108h-.198v1.123c.08.007.161.007.242.007Zm7.241-2.428c1.666,0,2.913-.998,3.162-2.26l.015-.073h-1.255l-.022.066c-.22.653-.902,1.137-1.871,1.137-1.357,0-2.223-.917-2.252-2.487h5.495v-.47c0-2.289-1.269-3.837-3.353-3.837-2.083,0-3.433,1.621-3.433,3.984v.007c0,2.399,1.32,3.933,3.514,3.933Zm-.088-6.794c1.115,0,1.937.697,2.062,2.179h-4.175c.139-1.423,1.005-2.179,2.113-2.179Zm7.131,6.794c.25,0,.521-.03.683-.052v-1.034c-.11.007-.257.029-.411.029-.683,0-1.042-.227-1.042-1.042v-4.622h1.453v-1.056h-1.453v-2.062h-1.321v2.062h-1.115v1.056h1.115v4.63c0,1.46.69,2.091,2.091,2.091Zm4.138,0c1.02,0,1.937-.551,2.385-1.387h.029v1.24h1.277v-5.275c0-1.526-1.13-2.502-2.935-2.502-1.798,0-2.891,1.012-3.001,2.267l-.007.081h1.232l.015-.066c.147-.683.763-1.152,1.746-1.152c1.064,0,1.673.565,1.673,1.497v.638l-2.186.125c-1.754.102-2.766.917-2.766,2.215v.015c0,1.387,1.019,2.304,2.538,2.304Zm-1.232-2.304v-.015c0-.711.587-1.166,1.606-1.225l2.04-.125v.624c0,1.108-.924,1.937-2.128,1.937-.917,0-1.518-.462-1.518-1.196Z" fill="#ddd"/><path d="M112.027,249.631h3.558c3.148,0,4.997-1.959,4.997-5.297v-.015c0-3.323-1.864-5.275-4.997-5.275h-3.558v10.587Zm1.321-1.189v-8.209h2.149c2.399,0,3.735,1.46,3.735,4.101v.014c0,2.627-1.336,4.094-3.735,4.094h-2.149Zm11.819,1.336c1.666,0,2.913-.998,3.162-2.26l.015-.073h-1.255l-.022.066c-.22.653-.902,1.137-1.871,1.137-1.357,0-2.223-.917-2.252-2.487h5.495v-.47c0-2.289-1.269-3.837-3.353-3.837-2.083,0-3.433,1.621-3.433,3.984v.007c0,2.399,1.32,3.933,3.514,3.933Zm-.088-6.794c1.115,0,1.937.697,2.062,2.179h-4.175c.14-1.423,1.005-2.179,2.113-2.179Zm7.131,6.794c.25,0,.521-.03.683-.052v-1.034c-.11.007-.257.029-.411.029-.683,0-1.042-.227-1.042-1.042v-4.622h1.453v-1.056h-1.453v-2.062h-1.321v2.062h-1.115v1.056h1.115v4.63c0,1.46.69,2.091,2.091,2.091Zm4.138,0c1.02,0,1.937-.551,2.385-1.387h.029v1.24h1.277v-5.275c0-1.526-1.13-2.502-2.935-2.502-1.798,0-2.891,1.012-3.001,2.267l-.007.081h1.232l.015-.066c.147-.683.763-1.152,1.746-1.152c1.064,0,1.673.565,1.673,1.497v.638l-2.186.125c-1.754.102-2.766.917-2.766,2.215v.015c0,1.387,1.02,2.304,2.538,2.304Zm-1.232-2.304v-.015c0-.711.587-1.166,1.606-1.225l2.04-.125v.624c0,1.108-.924,1.937-2.128,1.937-.917,0-1.518-.462-1.518-1.196Zm6.61,2.157h1.277v-10.587h-1.277v10.587Zm3.067,0h1.276v-10.587h-1.276v10.587Zm6.14.147c1.666,0,2.913-.998,3.163-2.26l.014-.073h-1.254l-.022.066c-.22.653-.903,1.137-1.871,1.137-1.357,0-2.223-.917-2.253-2.487h5.496v-.47c0-2.289-1.27-3.837-3.353-3.837-2.084,0-3.434,1.621-3.434,3.984v.007c0,2.399,1.321,3.933,3.514,3.933Zm-.088-6.794c1.116,0,1.937.697,2.062,2.179h-4.175c.14-1.423,1.006-2.179,2.113-2.179Zm7.359,6.794c1.702,0,2.964-.94,2.964-2.275v-.007c0-1.086-.557-1.695-2.098-2.069l-1.211-.294c-.843-.205-1.188-.564-1.188-1.085v-.008c0-.675.572-1.122,1.496-1.122.947,0,1.512.491,1.615,1.232l.007.052h1.218l-.008-.096c-.095-1.276-1.159-2.252-2.832-2.252-1.65,0-2.802.932-2.802,2.245v.007c0,1.101.697,1.768,2.135,2.113l1.21.294c.866.213,1.152.521,1.152,1.071v.007c0,.69-.616,1.123-1.651,1.123-1.041,0-1.606-.448-1.76-1.211l-.015-.073h-1.277l.008.066c.154,1.365,1.24,2.282,3.037,2.282Zm10.242,0c1.093,0,1.944-.551,2.421-1.438h.03v1.291h1.276v-10.587h-1.276v4.233h-.03c-.477-.88-1.364-1.423-2.443-1.423-1.915,0-3.221,1.548-3.221,3.954v.008c0,2.406,1.292,3.962,3.243,3.962Zm.25-1.13c-1.35,0-2.187-1.079-2.187-2.832v-.008c0-1.738.837-2.824,2.187-2.824c1.283,0,2.208,1.122,2.208,2.824v.008c0,1.709-.917,2.832-2.208,2.832Zm8.341,1.13c1.666,0,2.913-.998,3.162-2.26l.015-.073h-1.254l-.022.066c-.221.653-.903,1.137-1.871,1.137-1.358,0-2.223-.917-2.253-2.487h5.496v-.47c0-2.289-1.27-3.837-3.353-3.837-2.084,0-3.434,1.621-3.434,3.984v.007c0,2.399,1.321,3.933,3.514,3.933Zm-.088-6.794c1.116,0,1.937.697,2.062,2.179h-4.175c.14-1.423,1.005-2.179,2.113-2.179Zm7.799,6.647h1.277v-10.587h-1.277v10.587Zm5.231.147c1.02,0,1.937-.551,2.385-1.387h.029v1.24h1.277v-5.275c0-1.526-1.13-2.502-2.935-2.502-1.798,0-2.891,1.012-3.001,2.267l-.007.081h1.232l.015-.066c.147-.683.763-1.152,1.746-1.152c1.064,0,1.673.565,1.673,1.497v.638l-2.186.125c-1.754.102-2.766.917-2.766,2.215v.015c0,1.387,1.02,2.304,2.538,2.304Zm-1.232-2.304v-.015c0-.711.587-1.166,1.606-1.225l2.04-.125v.624c0,1.108-.924,1.937-2.128,1.937-.917,0-1.518-.462-1.518-1.196Zm12.105,2.304c.25,0,.521-.03.683-.052v-1.034c-.111.007-.257.029-.411.029-.683,0-1.042-.227-1.042-1.042v-4.622h1.453v-1.056h-1.453v-2.062h-1.321v2.062h-1.115v1.056h1.115v4.63c0,1.46.69,2.091,2.091,2.091Zm4.138,0c1.02,0,1.937-.551,2.384-1.387h.03v1.24h1.276v-5.275c0-1.526-1.129-2.502-2.934-2.502-1.798,0-2.891,1.012-3.001,2.267l-.007.081h1.232l.015-.066c.147-.683.763-1.152,1.746-1.152c1.064,0,1.673.565,1.673,1.497v.638l-2.186.125c-1.754.102-2.766.917-2.766,2.215v.015c0,1.387,1.019,2.304,2.538,2.304Zm-1.232-2.304v-.015c0-.711.586-1.166,1.606-1.225l2.04-.125v.624c0,1.108-.925,1.937-2.128,1.937-.917,0-1.518-.462-1.518-1.196Zm6.544,2.157h1.276v-4.71c0-1.159.646-1.849,1.636-1.849.309,0,.58.037.683.073v-1.24c-.103-.014-.294-.051-.514-.051-.858,0-1.518.558-1.775,1.438h-.03v-1.291h-1.276v7.63Zm5.341-8.922c.447,0,.8-.359.8-.799c0-.448-.353-.8-.8-.8-.44,0-.8.352-.8.8c0,.44.36.799.8.799Zm-1.724,11.497c1.629,0,2.362-.704,2.362-2.252v-7.953h-1.276v7.967c0,.851-.301,1.108-1.13,1.108h-.198v1.123c.08.007.161.007.242.007Zm7.241-2.428c1.666,0,2.913-.998,3.162-2.26l.015-.073h-1.255l-.022.066c-.22.653-.902,1.137-1.871,1.137-1.357,0-2.223-.917-2.252-2.487h5.495v-.47c0-2.289-1.269-3.837-3.353-3.837-2.083,0-3.433,1.621-3.433,3.984v.007c0,2.399,1.32,3.933,3.514,3.933Zm-.088-6.794c1.115,0,1.937.697,2.062,2.179h-4.175c.139-1.423,1.005-2.179,2.113-2.179Zm7.131,6.794c.25,0,.521-.03.683-.052v-1.034c-.11.007-.257.029-.411.029-.683,0-1.042-.227-1.042-1.042v-4.622h1.453v-1.056h-1.453v-2.062h-1.321v2.062h-1.115v1.056h1.115v4.63c0,1.46.69,2.091,2.091,2.091Zm4.138,0c1.02,0,1.937-.551,2.385-1.387h.029v1.24h1.277v-5.275c0-1.526-1.13-2.502-2.935-2.502-1.798,0-2.891,1.012-3.001,2.267l-.007.081h1.232l.015-.066c.147-.683.763-1.152,1.746-1.152c1.064,0,1.673.565,1.673,1.497v.638l-2.186.125c-1.754.102-2.766.917-2.766,2.215v.015c0,1.387,1.019,2.304,2.538,2.304Zm-1.232-2.304v-.015c0-.711.587-1.166,1.606-1.225l2.04-.125v.624c0,1.108-.924,1.937-2.128,1.937-.917,0-1.518-.462-1.518-1.196Z" fill-opacity="0.5"/><rect width="27.7972" height="17.8165" rx="2.25382" ry="2.25382" transform="translate(141.802 278.816)" fill="none" stroke="#777" stroke-width="1.50255"/><path d="M141.051,283.746h29.3m-23.666,6.712h1.811v1.243h-1.811v-1.243Z" fill="none" stroke="#777" stroke-width="3.0051" stroke-linejoin="round"/><path d="M181.197,293.189h1.497l2.854-4.225h.044l2.817,4.225h1.585l-3.58-5.253v-.029l3.661-5.304h-1.504l-2.862,4.262h-.044l-2.832-4.262h-1.592l3.566,5.238v.029l-3.61,5.319Zm9.613,0h1.497l2.854-4.225h.044l2.817,4.225h1.585l-3.58-5.253v-.029l3.661-5.304h-1.505l-2.861,4.262h-.044l-2.832-4.262h-1.592l3.566,5.238v.029l-3.61,5.319Zm9.613,0h1.497l2.854-4.225h.044l2.817,4.225h1.585l-3.581-5.253v-.029l3.661-5.304h-1.504l-2.861,4.262h-.044l-2.832-4.262h-1.592l3.566,5.238v.029l-3.61,5.319Zm9.613,0h1.496l2.854-4.225h.044l2.818,4.225h1.584l-3.58-5.253v-.029l3.661-5.304h-1.504l-2.861,4.262h-.044l-2.832-4.262h-1.592l3.565,5.238v.029l-3.609,5.319Zm12.769,0h1.497l2.854-4.225h.044l2.817,4.225h1.585l-3.581-5.253v-.029l3.661-5.304h-1.504l-2.861,4.262h-.044l-2.832-4.262h-1.592l3.566,5.238v.029l-3.61,5.319Zm9.613,0h1.497l2.854-4.225h.044l2.817,4.225h1.585l-3.581-5.253v-.029l3.661-5.304h-1.504l-2.861,4.262h-.044l-2.832-4.262h-1.592l3.565,5.238v.029l-3.609,5.319Zm9.613,0h1.496l2.854-4.225h.044l2.818,4.225h1.584l-3.58-5.253v-.029l3.661-5.304h-1.504l-2.861,4.262h-.044l-2.832-4.262h-1.592l3.565,5.238v.029l-3.609,5.319Zm9.612,0h1.497l2.854-4.225h.044l2.817,4.225h1.585l-3.58-5.253v-.029l3.661-5.304h-1.504l-2.861,4.262h-.045l-2.831-4.262h-1.593l3.566,5.238v.029l-3.61,5.319Zm12.77,0h1.496l2.854-4.225h.044l2.818,4.225h1.584l-3.58-5.253v-.029l3.661-5.304h-1.504l-2.861,4.262h-.044l-2.832-4.262h-1.592l3.565,5.238v.029l-3.609,5.319Zm9.613,0h1.496l2.854-4.225h.044l2.818,4.225h1.584l-3.58-5.253v-.029l3.661-5.304h-1.504l-2.861,4.262h-.044l-2.832-4.262h-1.592l3.565,5.238v.029l-3.609,5.319Zm9.612,0h1.497l2.854-4.225h.044l2.817,4.225h1.585l-3.58-5.253v-.029l3.661-5.304h-1.504l-2.862,4.262h-.044l-2.832-4.262h-1.592l3.566,5.238v.029l-3.61,5.319Zm9.613,0h1.497l2.854-4.225h.044l2.817,4.225h1.585l-3.58-5.253v-.029l3.661-5.304h-1.504l-2.862,4.262h-.044l-2.832-4.262h-1.592l3.566,5.238v.029l-3.61,5.319Z" fill="#afafaf"/><path d="M338.453,293.189h1.232v-8.18h.044l3.383,8.18h1.115l3.382-8.18h.044v8.18h1.233v-10.586h-1.526l-3.669,8.921h-.044l-3.668-8.921h-1.526v10.586Zm12.562,0h1.233v-8.18h.044l3.382,8.18h1.115l3.382-8.18h.044v8.18h1.233v-10.586h-1.526l-3.669,8.921h-.044l-3.668-8.921h-1.526v10.586Zm15.739-10.586h-1.218l-2.986,13.154h1.218l2.986-13.154Zm-.409,10.586h1.387l1.071-3.03h4.262l1.071,3.03h1.387l-3.932-10.586h-1.306l-3.94,10.586Zm4.578-9.002h.029l1.717,4.85h-3.463l1.717-4.85Zm5.049,9.002h1.387l1.071-3.03h4.263l1.071,3.03h1.387l-3.933-10.586h-1.306l-3.94,10.586Zm4.578-9.002h.03l1.717,4.85h-3.463l1.716-4.85Z" fill="#afafaf"/><path d="M404.4,293.366c2.216,0,3.911-1.314,4.314-3.339l.015-.073h-1.335l-.022.066c-.462,1.394-1.49,2.128-2.972,2.128-2.105,0-3.477-1.68-3.477-4.256v-.007c0-2.575,1.364-4.241,3.477-4.241c1.49,0,2.532.749,2.942,2.033l.052.161h1.335l-.015-.073c-.403-2.003-2.113-3.338-4.314-3.338-2.949,0-4.835,2.127-4.835,5.458v.007c0,3.331,1.893,5.474,4.835,5.474Zm9.026-.177h1.306l3.903-10.586h-1.386l-3.155,9.002h-.029l-3.155-9.002h-1.387l3.903,10.586Zm10.919.177c2.216,0,3.91-1.314,4.314-3.339l.015-.073h-1.336l-.022.066c-.462,1.394-1.489,2.128-2.971,2.128-2.106,0-3.478-1.68-3.478-4.256v-.007c0-2.575,1.365-4.241,3.478-4.241c1.489,0,2.531.749,2.942,2.033l.051.161h1.336l-.015-.073c-.404-2.003-2.113-3.338-4.314-3.338-2.949,0-4.835,2.127-4.835,5.458v.007c0,3.331,1.893,5.474,4.835,5.474Z" fill="#afafaf"/><rect width="347.84" height="52.5892" rx="26.2946" ry="26.2946" transform="translate(111.751 261.896)" fill="none" stroke="#2580ff" stroke-width="1.50255"/></g><g id="eoLTNReZP9B61" opacity="0"><path d="M112.027,344.26h1.306v-8.357h.037l5.825,8.357h1.284v-10.587h-1.306v8.356h-.037l-5.825-8.356h-1.284v10.587Zm13.771-8.503l1.607-2.201h-1.335l-1.255,2.201h.983Zm-.858,8.649c1.159,0,1.937-.52,2.347-1.232h.03v1.086h1.276v-7.63h-1.276v4.49c0,1.298-.785,2.157-1.988,2.157-1.174,0-1.754-.683-1.754-1.923v-4.724h-1.277v4.952c0,1.739.969,2.824,2.642,2.824Zm5.319-.146h1.276v-4.784c0-1.064.734-1.863,1.746-1.863.947,0,1.563.609,1.563,1.533v5.114h1.277v-4.85c0-1.042.711-1.797,1.724-1.797c1.005,0,1.585.623,1.585,1.673v4.974h1.276v-5.268c0-1.519-.976-2.509-2.487-2.509-1.071,0-1.966.55-2.392,1.467h-.029c-.33-.932-1.101-1.467-2.142-1.467-.983,0-1.746.506-2.091,1.262h-.03v-1.115h-1.276v7.63Zm15.216.146c1.665,0,2.913-.997,3.162-2.259l.015-.074h-1.255l-.022.066c-.22.653-.902,1.138-1.871,1.138-1.357,0-2.223-.917-2.252-2.487h5.495v-.47c0-2.289-1.269-3.837-3.353-3.837-2.083,0-3.433,1.621-3.433,3.984v.007c0,2.399,1.32,3.932,3.514,3.932Zm-.088-6.793c1.115,0,1.937.697,2.062,2.179h-4.175c.139-1.424,1.005-2.179,2.113-2.179Zm4.651,6.647h1.277v-4.71c0-1.16.646-1.849,1.636-1.849.308,0,.58.036.682.073v-1.24c-.102-.014-.293-.051-.513-.051-.859,0-1.519.557-1.776,1.438h-.029v-1.291h-1.277v7.63Zm7.432.146c2.106,0,3.529-1.526,3.529-3.961v-.015c0-2.436-1.43-3.947-3.536-3.947-2.105,0-3.529,1.519-3.529,3.947v.015c0,2.428,1.416,3.961,3.536,3.961Zm.008-1.129c-1.35,0-2.238-1.035-2.238-2.832v-.015c0-1.783.895-2.817,2.223-2.817c1.35,0,2.23,1.027,2.23,2.817v.015c0,1.79-.873,2.832-2.215,2.832Zm10.763,1.129c1.093,0,1.944-.55,2.421-1.437h.029v1.291h1.277v-10.587h-1.277v4.233h-.029c-.477-.88-1.365-1.423-2.443-1.423-1.915,0-3.221,1.548-3.221,3.954v.008c0,2.406,1.291,3.961,3.243,3.961Zm.249-1.129c-1.35,0-2.186-1.079-2.186-2.832v-.008c0-1.738.836-2.824,2.186-2.824c1.284,0,2.208,1.122,2.208,2.824v.008c0,1.709-.917,2.832-2.208,2.832Zm8.342,1.129c1.665,0,2.913-.997,3.162-2.259l.015-.074h-1.255l-.022.066c-.22.653-.902,1.138-1.871,1.138-1.357,0-2.223-.917-2.252-2.487h5.495v-.47c0-2.289-1.269-3.837-3.353-3.837-2.083,0-3.433,1.621-3.433,3.984v.007c0,2.399,1.32,3.932,3.514,3.932Zm-.088-6.793c1.115,0,1.937.697,2.062,2.179h-4.175c.139-1.424,1.005-2.179,2.113-2.179Zm10.213,6.793c.249,0,.52-.029.682-.051v-1.034c-.11.007-.257.029-.411.029-.682,0-1.042-.227-1.042-1.042v-4.622h1.453v-1.056h-1.453v-2.062h-1.32v2.062h-1.116v1.056h1.116v4.63c0,1.46.689,2.09,2.091,2.09Zm4.974,0c1.665,0,2.912-.997,3.162-2.259l.015-.074h-1.255l-.022.066c-.22.653-.902,1.138-1.871,1.138-1.357,0-2.223-.917-2.252-2.487h5.495v-.47c0-2.289-1.269-3.837-3.353-3.837s-3.433,1.621-3.433,3.984v.007c0,2.399,1.32,3.932,3.514,3.932Zm-.088-6.793c1.115,0,1.937.697,2.061,2.179h-4.174c.139-1.424,1.005-2.179,2.113-2.179Zm4.717,6.647h1.277v-10.587h-1.277v10.587Zm6.141.146c1.665,0,2.913-.997,3.162-2.259l.015-.074h-1.255l-.022.066c-.22.653-.902,1.138-1.871,1.138-1.357,0-2.223-.917-2.252-2.487h5.495v-.47c0-2.289-1.269-3.837-3.353-3.837-2.083,0-3.433,1.621-3.433,3.984v.007c0,2.399,1.32,3.932,3.514,3.932Zm-.088-6.793c1.115,0,1.937.697,2.062,2.179h-4.175c.139-1.424,1.005-2.179,2.113-2.179Zm5.062,6.647h1.277v-6.574h1.555v-1.056h-1.57v-.932c0-.756.352-1.115,1.057-1.115.198,0,.396.007.55.029v-1.034c-.191-.03-.492-.052-.778-.052-1.408,0-2.091.697-2.091,2.165v.939h-1.064v1.056h1.064v6.574Zm6.581.146c2.106,0,3.529-1.526,3.529-3.961v-.015c0-2.436-1.43-3.947-3.536-3.947s-3.529,1.519-3.529,3.947v.015c0,2.428,1.416,3.961,3.536,3.961Zm.008-1.129c-1.35,0-2.238-1.035-2.238-2.832v-.015c0-1.783.895-2.817,2.223-2.817c1.35,0,2.23,1.027,2.23,2.817v.015c0,1.79-.873,2.832-2.215,2.832Zm4.812.983h1.277v-4.49c0-1.299.785-2.157,1.988-2.157c1.174,0,1.754.682,1.754,1.922v4.725h1.276v-4.952c0-1.739-.968-2.825-2.641-2.825-1.159,0-1.937.521-2.348,1.232h-.029v-1.085h-1.277v7.63Zm11.086.146c2.106,0,3.529-1.526,3.529-3.961v-.015c0-2.436-1.431-3.947-3.536-3.947-2.106,0-3.529,1.519-3.529,3.947v.015c0,2.428,1.416,3.961,3.536,3.961Zm.008-1.129c-1.35,0-2.238-1.035-2.238-2.832v-.015c0-1.783.895-2.817,2.223-2.817c1.35,0,2.23,1.027,2.23,2.817v.015c0,1.79-.873,2.832-2.215,2.832Z" fill="#ddd"/><path d="M112.027,344.26h1.306v-8.357h.037l5.825,8.357h1.284v-10.587h-1.306v8.356h-.037l-5.825-8.356h-1.284v10.587Zm13.771-8.503l1.607-2.201h-1.335l-1.255,2.201h.983Zm-.858,8.649c1.159,0,1.937-.52,2.347-1.232h.03v1.086h1.276v-7.63h-1.276v4.49c0,1.298-.785,2.157-1.988,2.157-1.174,0-1.754-.683-1.754-1.923v-4.724h-1.277v4.952c0,1.739.969,2.824,2.642,2.824Zm5.319-.146h1.276v-4.784c0-1.064.734-1.863,1.746-1.863.947,0,1.563.609,1.563,1.533v5.114h1.277v-4.85c0-1.042.711-1.797,1.724-1.797c1.005,0,1.585.623,1.585,1.673v4.974h1.276v-5.268c0-1.519-.976-2.509-2.487-2.509-1.071,0-1.966.55-2.392,1.467h-.029c-.33-.932-1.101-1.467-2.142-1.467-.983,0-1.746.506-2.091,1.262h-.03v-1.115h-1.276v7.63Zm15.216.146c1.665,0,2.913-.997,3.162-2.259l.015-.074h-1.255l-.022.066c-.22.653-.902,1.138-1.871,1.138-1.357,0-2.223-.917-2.252-2.487h5.495v-.47c0-2.289-1.269-3.837-3.353-3.837-2.083,0-3.433,1.621-3.433,3.984v.007c0,2.399,1.32,3.932,3.514,3.932Zm-.088-6.793c1.115,0,1.937.697,2.062,2.179h-4.175c.139-1.424,1.005-2.179,2.113-2.179Zm4.651,6.647h1.277v-4.71c0-1.16.646-1.849,1.636-1.849.308,0,.58.036.682.073v-1.24c-.102-.014-.293-.051-.513-.051-.859,0-1.519.557-1.776,1.438h-.029v-1.291h-1.277v7.63Zm7.432.146c2.106,0,3.529-1.526,3.529-3.961v-.015c0-2.436-1.43-3.947-3.536-3.947-2.105,0-3.529,1.519-3.529,3.947v.015c0,2.428,1.416,3.961,3.536,3.961Zm.008-1.129c-1.35,0-2.238-1.035-2.238-2.832v-.015c0-1.783.895-2.817,2.223-2.817c1.35,0,2.23,1.027,2.23,2.817v.015c0,1.79-.873,2.832-2.215,2.832Zm10.763,1.129c1.093,0,1.944-.55,2.421-1.437h.029v1.291h1.277v-10.587h-1.277v4.233h-.029c-.477-.88-1.365-1.423-2.443-1.423-1.915,0-3.221,1.548-3.221,3.954v.008c0,2.406,1.291,3.961,3.243,3.961Zm.249-1.129c-1.35,0-2.186-1.079-2.186-2.832v-.008c0-1.738.836-2.824,2.186-2.824c1.284,0,2.208,1.122,2.208,2.824v.008c0,1.709-.917,2.832-2.208,2.832Zm8.342,1.129c1.665,0,2.913-.997,3.162-2.259l.015-.074h-1.255l-.022.066c-.22.653-.902,1.138-1.871,1.138-1.357,0-2.223-.917-2.252-2.487h5.495v-.47c0-2.289-1.269-3.837-3.353-3.837-2.083,0-3.433,1.621-3.433,3.984v.007c0,2.399,1.32,3.932,3.514,3.932Zm-.088-6.793c1.115,0,1.937.697,2.062,2.179h-4.175c.139-1.424,1.005-2.179,2.113-2.179Zm10.213,6.793c.249,0,.52-.029.682-.051v-1.034c-.11.007-.257.029-.411.029-.682,0-1.042-.227-1.042-1.042v-4.622h1.453v-1.056h-1.453v-2.062h-1.32v2.062h-1.116v1.056h1.116v4.63c0,1.46.689,2.09,2.091,2.09Zm4.974,0c1.665,0,2.912-.997,3.162-2.259l.015-.074h-1.255l-.022.066c-.22.653-.902,1.138-1.871,1.138-1.357,0-2.223-.917-2.252-2.487h5.495v-.47c0-2.289-1.269-3.837-3.353-3.837s-3.433,1.621-3.433,3.984v.007c0,2.399,1.32,3.932,3.514,3.932Zm-.088-6.793c1.115,0,1.937.697,2.061,2.179h-4.174c.139-1.424,1.005-2.179,2.113-2.179Zm4.717,6.647h1.277v-10.587h-1.277v10.587Zm6.141.146c1.665,0,2.913-.997,3.162-2.259l.015-.074h-1.255l-.022.066c-.22.653-.902,1.138-1.871,1.138-1.357,0-2.223-.917-2.252-2.487h5.495v-.47c0-2.289-1.269-3.837-3.353-3.837-2.083,0-3.433,1.621-3.433,3.984v.007c0,2.399,1.32,3.932,3.514,3.932Zm-.088-6.793c1.115,0,1.937.697,2.062,2.179h-4.175c.139-1.424,1.005-2.179,2.113-2.179Zm5.062,6.647h1.277v-6.574h1.555v-1.056h-1.57v-.932c0-.756.352-1.115,1.057-1.115.198,0,.396.007.55.029v-1.034c-.191-.03-.492-.052-.778-.052-1.408,0-2.091.697-2.091,2.165v.939h-1.064v1.056h1.064v6.574Zm6.581.146c2.106,0,3.529-1.526,3.529-3.961v-.015c0-2.436-1.43-3.947-3.536-3.947s-3.529,1.519-3.529,3.947v.015c0,2.428,1.416,3.961,3.536,3.961Zm.008-1.129c-1.35,0-2.238-1.035-2.238-2.832v-.015c0-1.783.895-2.817,2.223-2.817c1.35,0,2.23,1.027,2.23,2.817v.015c0,1.79-.873,2.832-2.215,2.832Zm4.812.983h1.277v-4.49c0-1.299.785-2.157,1.988-2.157c1.174,0,1.754.682,1.754,1.922v4.725h1.276v-4.952c0-1.739-.968-2.825-2.641-2.825-1.159,0-1.937.521-2.348,1.232h-.029v-1.085h-1.277v7.63Zm11.086.146c2.106,0,3.529-1.526,3.529-3.961v-.015c0-2.436-1.431-3.947-3.536-3.947-2.106,0-3.529,1.519-3.529,3.947v.015c0,2.428,1.416,3.961,3.536,3.961Zm.008-1.129c-1.35,0-2.238-1.035-2.238-2.832v-.015c0-1.783.895-2.817,2.223-2.817c1.35,0,2.23,1.027,2.23,2.817v.015c0,1.79-.873,2.832-2.215,2.832Z" fill-opacity="0.5"/><g clip-path="url(#eoLTNReZP9B71)"><g><path d="M160.512,375.93h-17.885c-.87,0-1.575.705-1.575,1.575v3.019h21.035v-3.019c0-.87-.705-1.575-1.575-1.575Z" fill="#82afff"/><path d="M141.052,388.136c0,.87.705,1.575,1.575,1.575h17.885c.87,0,1.575-.705,1.575-1.575v-3.019h-21.035v3.019Z" fill="#82afff"/><path d="M162.086,380.521h-21.035v4.594h21.035v-4.594Z" fill="#f5f5f5"/><path d="M153.382,382.729h-1.306c.024-.019.044-.037.061-.054.032-.031.057-.056.124-.084.068-.028.104-.028.148-.029.054-.001.115-.002.215-.043s.144-.084.182-.121c.032-.031.057-.056.125-.084.067-.028.102-.029.147-.029.054-.001.115-.001.214-.043l-.069-.167c-.067.028-.103.028-.147.029-.054,0-.115.001-.215.042-.1.042-.143.084-.182.122-.031.031-.057.056-.124.083-.068.029-.103.029-.148.03-.054,0-.115.001-.215.043-.1.041-.143.084-.182.121-.031.031-.057.055-.122.082l1.027-1.026-.128-.128-.924.924c.004-.031.005-.057.005-.082.001-.045.001-.08.029-.148.028-.067.053-.092.084-.124.038-.039.081-.083.122-.183.041-.099.042-.16.043-.214c0-.045,0-.08.028-.148.028-.067.053-.092.084-.124.038-.038.08-.082.122-.182l-.168-.069c-.028.067-.052.092-.084.124-.037.039-.08.083-.121.182-.042.1-.042.161-.043.215c0,.044-.001.08-.029.147-.027.068-.052.093-.083.125-.038.038-.081.082-.122.182-.042.1-.042.161-.043.215c0,.044-.002.079-.028.144v-1.451h-.181v1.306c-.019-.025-.037-.044-.054-.061-.031-.032-.056-.058-.084-.125s-.028-.103-.029-.148c0-.054-.001-.115-.043-.215-.041-.099-.084-.143-.121-.182-.031-.031-.056-.057-.084-.124s-.028-.103-.029-.147c0-.054-.001-.115-.042-.215l-.168.07c.028.067.028.102.029.147c0,.054.001.115.042.214.042.1.084.143.122.182.031.032.056.057.084.124.028.068.028.103.029.149.001.053.001.115.043.215.041.099.084.143.121.182.031.031.055.057.083.121l-1.027-1.026-.128.128l1.025,1.025c-.056-.026-.084-.049-.113-.078-.039-.038-.082-.08-.183-.122-.1-.041-.161-.042-.215-.043-.045,0-.08-.001-.148-.029s-.094-.053-.126-.084c-.039-.038-.083-.081-.183-.123-.101-.041-.162-.042-.216-.042-.045-.001-.081-.002-.149-.03l-.07.168c.101.041.162.042.216.043.045,0,.081.001.149.029s.094.053.126.085c.039.037.083.08.183.121.101.042.162.043.216.044.045,0,.08.001.148.029s.093.053.125.084c.017.016.035.033.057.051h-1.309v.181h1.448c-.057.022-.093.025-.134.025-.054.001-.115.002-.215.043s-.144.084-.183.122c-.032.031-.057.056-.125.084s-.104.029-.149.03c-.054,0-.115.001-.216.042-.1.042-.144.085-.183.123-.032.031-.058.056-.126.084l.07.168c.1-.042.144-.085.182-.122.033-.032.058-.057.127-.085.068-.028.103-.029.149-.029.054-.001.115-.002.216-.044.099-.041.143-.084.182-.122.032-.031.057-.055.126-.083.067-.029.103-.029.148-.03.023,0,.048-.002.076-.005l-.926.926.128.129l1.024-1.025c-.025.056-.048.083-.077.113-.037.039-.08.082-.122.182-.041.1-.042.162-.042.216-.001.045-.002.08-.03.148s-.053.094-.084.126c-.038.039-.081.083-.122.183-.042.1-.043.162-.043.216-.001.045-.002.081-.03.149l.168.069c.041-.1.042-.161.043-.216c0-.045.001-.08.029-.148.028-.069.053-.094.085-.126.037-.039.08-.083.122-.184.041-.099.042-.161.043-.215c0-.045.001-.08.029-.148s.053-.093.084-.126c.016-.016.033-.035.051-.057v1.31h.181v-1.449c.022.057.024.093.025.134c0,.054.001.115.043.215.041.101.084.145.122.183.031.032.056.058.084.126s.029.104.029.149c.001.054.002.115.043.215.042.1.085.145.123.183.031.033.056.058.084.126l.167-.069c-.041-.1-.084-.144-.122-.183-.031-.032-.056-.058-.084-.126s-.029-.104-.03-.149c0-.054-.001-.115-.043-.216-.041-.1-.084-.144-.121-.182-.032-.033-.057-.058-.085-.126s-.028-.103-.029-.148c0-.023-.002-.049-.005-.077l.926.927.129-.129-.924-.923c.03.004.057.005.081.005.045.001.08.001.148.029.067.028.093.053.125.084.038.038.082.081.182.122s.161.042.215.042c.044.001.08.001.147.029s.092.053.124.084c.039.038.082.08.182.122l.069-.168c-.067-.028-.092-.052-.124-.084-.039-.037-.082-.08-.182-.121-.099-.042-.161-.042-.214-.043-.045,0-.08-.001-.148-.029-.067-.028-.093-.052-.125-.084-.038-.037-.082-.08-.182-.121-.1-.042-.161-.043-.215-.043-.044-.001-.079-.002-.145-.028h1.453v-.181v0Z" fill="#f09146"/><path d="M151.569,383.726c.501,0,.907-.406.907-.907s-.406-.907-.907-.907-.907.406-.907.907.406.907.907.907Z" fill="#ffe15a"/></g><clipPath id="eoLTNReZP9B71"><rect width="21.0357" height="21.0357" rx="0" ry="0" transform="translate(141.051 372.301)" fill="#fff"/></clipPath></g><path d="M175.1,379.884c.315-.302.814-.292,1.116.022l3.901,4.142l3.902-4.142c.302-.314.801-.324,1.115-.022s.324.802.022,1.116l-4.47,4.733c-.149.154-.354.242-.569.242-.214,0-.42-.088-.568-.242L175.079,381c-.302-.314-.293-.814.021-1.116Z" clip-rule="evenodd" fill="#2580ff" fill-rule="evenodd"/><line x1="198.899" y1="364.037" x2="198.899" y2="401.601" fill="none" stroke="#afafaf" stroke-width="1.50255"/><path d="M213.781,387.818h7.429v-1.28h-3.444c-.595,0-1.298.036-1.93.09c2.795-2.848,4.815-4.922,4.815-7.158c0-2.019-1.335-3.372-3.462-3.372-1.479,0-2.507.704-3.462,1.785l.847.812c.649-.757,1.479-1.37,2.434-1.37c1.461,0,2.182.919,2.182,2.235c0,1.857-1.983,3.985-5.409,7.339v.919Zm9.053,0h7.428v-1.28h-3.444c-.595,0-1.298.036-1.929.09c2.795-2.848,4.814-4.922,4.814-7.158c0-2.019-1.334-3.372-3.462-3.372-1.478,0-2.506.704-3.461,1.785l.847.812c.649-.757,1.478-1.37,2.434-1.37c1.461,0,2.182.919,2.182,2.235c0,1.857-1.984,3.985-5.409,7.339v.919Zm9.755,0h6.491v-1.244h-2.362v-10.259h-1.154c-.631.378-1.388.667-2.452.847v.974h2.11v8.438h-2.633v1.244Zm12.753,0h6.491v-1.244h-2.362v-10.259h-1.154c-.631.378-1.388.667-2.452.847v.974h2.109v8.438h-2.632v1.244Zm8.349,0h7.429v-1.28h-3.444c-.595,0-1.298.036-1.929.09c2.795-2.848,4.814-4.922,4.814-7.158c0-2.019-1.334-3.372-3.462-3.372-1.478,0-2.506.704-3.462,1.785l.848.812c.649-.757,1.478-1.37,2.434-1.37c1.46,0,2.181.919,2.181,2.235c0,1.857-1.983,3.985-5.409,7.339v.919Zm13.038-5.914c1.424,0,2.127.938,2.127,2.434c0,1.515-.865,2.525-2.001,2.525-1.443,0-2.326-1.19-2.524-3.426.721-1.082,1.658-1.533,2.398-1.533Zm.126,6.131c1.857,0,3.408-1.497,3.408-3.697c0-2.362-1.281-3.552-3.282-3.552-.937,0-1.965.577-2.686,1.479.054-3.66,1.424-4.922,3.029-4.922.721,0,1.442.36,1.893.919l.829-.937c-.631-.704-1.532-1.227-2.776-1.227-2.29,0-4.382,1.785-4.382,6.401c0,3.697,1.713,5.536,3.967,5.536Zm12.175,0c2.11,0,3.805-1.244,3.805-3.282c0-1.587-1.1-2.596-2.488-2.921v-.072c1.244-.469,2.073-1.352,2.073-2.741c0-1.857-1.442-2.921-3.444-2.921-1.352,0-2.416.614-3.299,1.443l.793.938c.685-.668,1.497-1.154,2.452-1.154c1.226,0,1.984.703,1.984,1.803c0,1.208-.83,2.145-3.264,2.145v1.136c2.741,0,3.678.92,3.678,2.29c0,1.28-.991,2.092-2.38,2.092-1.352,0-2.254-.631-2.939-1.353l-.757.974c.775.847,1.947,1.623,3.786,1.623Zm6.673-4.58l2.686-3.913c.325-.577.65-1.082.938-1.622h.072c-.036.613-.09,1.604-.09,2.199v3.336h-3.606Zm3.606,4.363h1.406v-3.173h1.569v-1.19h-1.569v-7.14h-1.658l-4.923,7.338v.992h5.175v3.173Zm11.49.217c2.002,0,3.877-1.407,3.877-3.895s-1.605-3.606-3.552-3.606c-.703,0-1.226.18-1.767.469l.306-3.39h4.454v-1.298h-5.77l-.378,5.535.793.505c.685-.451,1.172-.685,1.965-.685c1.479,0,2.434.919,2.434,2.506c0,1.605-1.1,2.615-2.506,2.615-1.352,0-2.218-.631-2.903-1.317l-.721.992c.793.793,1.929,1.569,3.768,1.569Zm9.54-6.131c1.424,0,2.127.938,2.127,2.434c0,1.515-.865,2.525-2.001,2.525-1.442,0-2.326-1.19-2.524-3.426.721-1.082,1.659-1.533,2.398-1.533Zm.126,6.131c1.857,0,3.408-1.497,3.408-3.697c0-2.362-1.28-3.552-3.282-3.552-.937,0-1.965.577-2.686,1.479.054-3.66,1.424-4.922,3.029-4.922.721,0,1.442.36,1.893.919l.829-.937c-.631-.704-1.532-1.227-2.776-1.227-2.29,0-4.382,1.785-4.382,6.401c0,3.697,1.713,5.536,3.967,5.536Z" fill="#afafaf"/><rect width="347.089" height="52.5892" rx="26.2946" ry="26.2946" transform="translate(111.751 356.525)" fill="none" stroke="#2580ff" stroke-width="1.50255"/></g><g id="eoLTNReZP9B77" transform="translate(0-19.999999)"><rect width="348.592" height="54.0918" rx="27.0459" ry="27.0459" transform="translate(111 445)" fill="#2580ff"/><path d="M222.1,479.047h2.65v-4.9h3.061c2.999,0,5.043-1.992,5.043-4.95v-.021c0-2.968-2.044-4.951-5.043-4.951h-5.711v14.822Zm5.054-12.654c1.9,0,3.009,1.016,3.009,2.793v.021c0,1.777-1.109,2.804-3.009,2.804h-2.404v-5.618h2.404Zm9.851,12.839c1.438,0,2.65-.719,3.277-1.859h.061v1.674h2.558v-7.488c0-2.188-1.756-3.626-4.478-3.626-2.763,0-4.437,1.449-4.592,3.38l-.01.123h2.373l.02-.093c.165-.801.904-1.366,2.116-1.366c1.294,0,2.013.668,2.013,1.767v.75l-2.845.174c-2.639.165-4.139,1.325-4.139,3.256v.021c0,1.941,1.469,3.287,3.646,3.287Zm-1.099-3.39v-.01c0-.863.688-1.407,1.952-1.489l2.485-.154v.821c0,1.294-1.109,2.27-2.578,2.27-1.119,0-1.859-.544-1.859-1.438Zm14.022,7.016c3.153,0,5.136-1.654,5.136-4.119v-10.58h-2.558v1.849h-.062c-.616-1.253-1.807-2.075-3.348-2.075-2.753,0-4.53,2.116-4.53,5.557v.01c0,3.39,1.757,5.485,4.489,5.485c1.561,0,2.794-.739,3.4-1.9h.051v1.572c0,1.386-.914,2.27-2.578,2.27-1.335,0-2.208-.473-2.486-1.1l-.031-.082h-2.516l.02.093c.309,1.705,2.127,3.02,5.013,3.02Zm-.072-5.845c-1.643,0-2.681-1.325-2.681-3.472v-.01c0-2.116,1.038-3.441,2.681-3.441c1.582,0,2.66,1.346,2.66,3.451v.011c0,2.116-1.068,3.461-2.66,3.461Zm10.57,2.219c1.438,0,2.65-.719,3.277-1.859h.062v1.674h2.557v-7.488c0-2.188-1.756-3.626-4.478-3.626-2.763,0-4.437,1.449-4.591,3.38l-.011.123h2.373l.021-.093c.164-.801.903-1.366,2.115-1.366c1.295,0,2.014.668,2.014,1.767v.75l-2.846.174c-2.639.165-4.139,1.325-4.139,3.256v.021c0,1.941,1.469,3.287,3.646,3.287Zm-1.099-3.39v-.01c0-.863.689-1.407,1.952-1.489l2.486-.154v.821c0,1.294-1.11,2.27-2.579,2.27-1.119,0-1.859-.544-1.859-1.438Zm9.112,3.205h2.558v-6.317c0-1.613.873-2.527,2.321-2.527.432,0,.822.062,1.038.144v-2.311c-.196-.051-.493-.103-.812-.103-1.253,0-2.157.791-2.496,2.106h-.051v-1.88h-2.558v10.888Zm11.805,0h2.65v-6.05h6.214v-2.157h-6.214v-4.386h6.799v-2.229h-9.449v14.822Zm13.836.185c1.438,0,2.65-.719,3.277-1.859h.061v1.674h2.558v-7.488c0-2.188-1.756-3.626-4.478-3.626-2.763,0-4.438,1.449-4.592,3.38l-.01.123h2.373l.02-.093c.165-.801.904-1.366,2.116-1.366c1.294,0,2.013.668,2.013,1.767v.75l-2.845.174c-2.639.165-4.139,1.325-4.139,3.256v.021c0,1.941,1.469,3.287,3.646,3.287Zm-1.099-3.39v-.01c0-.863.688-1.407,1.952-1.489l2.485-.154v.821c0,1.294-1.109,2.27-2.578,2.27-1.119,0-1.859-.544-1.859-1.438Zm13.919,3.421c2.753,0,4.591-1.726,4.787-3.996l.01-.072h-2.414l-.02.093c-.237,1.14-1.058,1.91-2.353,1.91-1.612,0-2.66-1.315-2.66-3.585v-.01c0-2.229,1.038-3.595,2.65-3.595c1.356,0,2.137.853,2.352,1.911l.021.092h2.414l-.011-.082c-.154-2.178-1.941-3.996-4.807-3.996-3.174,0-5.228,2.178-5.228,5.65v.01c0,3.492,2.024,5.67,5.259,5.67Zm10.427,0c.513,0,.965-.052,1.263-.093v-1.921c-.174.011-.37.041-.616.041-.935,0-1.407-.338-1.407-1.407v-5.752h2.023v-1.972h-2.023v-2.763h-2.599v2.763h-1.541v1.972h1.541v5.968c0,2.239,1.079,3.164,3.359,3.164Zm6.78,0c1.643,0,2.763-.761,3.328-1.921h.051v1.705h2.558v-10.888h-2.558v6.307c0,1.582-.934,2.64-2.403,2.64-1.459,0-2.178-.873-2.178-2.414v-6.533h-2.557v7.036c0,2.527,1.366,4.068,3.759,4.068Zm8.095-.216h2.558v-6.317c0-1.613.873-2.527,2.321-2.527.431,0,.822.062,1.037.144v-2.311c-.195-.051-.493-.103-.811-.103-1.253,0-2.157.791-2.496,2.106h-.051v-1.88h-2.558v10.888Zm10.252.185c1.438,0,2.65-.719,3.277-1.859h.061v1.674h2.558v-7.488c0-2.188-1.757-3.626-4.478-3.626-2.763,0-4.438,1.449-4.592,3.38l-.01.123h2.373l.02-.093c.165-.801.904-1.366,2.116-1.366c1.294,0,2.013.668,2.013,1.767v.75l-2.845.174c-2.64.165-4.139,1.325-4.139,3.256v.021c0,1.941,1.469,3.287,3.646,3.287Zm-1.099-3.39v-.01c0-.863.688-1.407,1.952-1.489l2.485-.154v.821c0,1.294-1.109,2.27-2.578,2.27-1.119,0-1.859-.544-1.859-1.438Z" fill="#fff"/></g><g id="eoLTNReZP9B80" transform="translate(0 40)"><rect width="100" height="449" rx="16.528" ry="16.528" transform="matrix(0-1 1 0 61 120)" fill="#2580ff"/><path d="M196.075,78h3.679v-5.5416h3.385c3.703,0,6.175-2.3871,6.175-6.0044v-.0243c0-3.6173-2.472-6.0044-6.175-6.0044h-7.064v17.5747Zm6.163-14.6639c2.107,0,3.349,1.1084,3.349,3.1058v.0243c0,1.9974-1.242,3.1179-3.349,3.1179h-2.484v-6.248h2.484ZM213.973,78.207c1.717,0,3.106-.816,3.849-2.1557h.073v1.9487h3.556v-8.9518c0-2.6307-2.18-4.3723-5.554-4.3723-3.446,0-5.517,1.7294-5.712,4.1409l-.012.1462h3.252l.024-.1096c.171-.8404.975-1.4616,2.302-1.4616c1.389,0,2.144.7186,2.144,1.8757v.8038l-3.228.1949c-3.239.207-5.078,1.5954-5.078,3.9704v.0244c0,2.3018,1.766,3.946,4.384,3.946Zm-.865-4.1287v-.0244c0-.9256.719-1.5102,2.095-1.5955l2.692-.1705v.9378c0,1.3641-1.169,2.3872-2.765,2.3872-1.23,0-2.022-.5725-2.022-1.5346Zm16.498,8.4524c3.921,0,6.369-1.9852,6.369-4.8961v-12.6908h-3.556v2.2288h-.073c-.707-1.5224-2.132-2.4967-3.971-2.4967-3.3,0-5.346,2.4724-5.346,6.6377v.0122c0,4.0557,2.021,6.4915,5.286,6.4915c1.887,0,3.349-.8647,4.031-2.2288h.073v1.9974c0,1.4615-.974,2.4115-2.813,2.4115-1.486,0-2.436-.5602-2.716-1.2057l-.037-.0853h-3.459l.012.1096c.341,2.0948,2.607,3.7147,6.2,3.7147Zm-.061-7.3198c-1.779,0-2.899-1.4493-2.899-3.7999v-.0122c0-2.3384,1.133-3.7756,2.899-3.7756c1.729,0,2.886,1.4494,2.886,3.7756v.0122c0,2.3384-1.145,3.7999-2.886,3.7999Zm14.511,3.057c3.947,0,6.468-2.5332,6.468-6.796v-.0244c0-4.2262-2.57-6.7716-6.48-6.7716-3.897,0-6.455,2.5698-6.455,6.7716v.0244c0,4.2506,2.497,6.796,6.467,6.796Zm.013-2.789c-1.754,0-2.862-1.4493-2.862-4.007v-.0244c0-2.5211,1.12-3.9826,2.837-3.9826c1.73,0,2.862,1.4615,2.862,3.9826v.0244c0,2.5455-1.108,4.007-2.837,4.007Zm18.708,2.789c3.483,0,5.736-2.1679,5.906-5.0178v-.0731h-3.312l-.012.1096c-.244,1.3154-1.133,2.1923-2.558,2.1923-1.754,0-2.85-1.4493-2.85-4.007v-.0122c0-2.4967,1.096-3.9948,2.838-3.9948c1.473,0,2.338.95,2.557,2.1923l.025.1096h3.3v-.0853c-.134-2.8255-2.387-5.0056-5.931-5.0056-3.91,0-6.406,2.5941-6.406,6.7716v.0122c0,4.2141,2.46,6.8082,6.443,6.8082Zm13.367,0c3.946,0,6.467-2.5332,6.467-6.796v-.0244c0-4.2262-2.57-6.7716-6.48-6.7716-3.897,0-6.455,2.5698-6.455,6.7716v.0244c0,4.2506,2.497,6.796,6.468,6.796Zm.012-2.789c-1.754,0-2.862-1.4493-2.862-4.007v-.0244c0-2.5211,1.12-3.9826,2.837-3.9826c1.73,0,2.863,1.4615,2.863,3.9826v.0244c0,2.5455-1.109,4.007-2.838,4.007ZM284.2,78h3.557v-7.5024c0-1.7051,1.011-2.8744,2.606-2.8744c1.596,0,2.399.9744,2.399,2.6795v7.6973h3.557v-8.4281c0-3.057-1.632-4.896-4.507-4.896-1.973,0-3.312.9134-3.982,2.4115h-.073v-2.1436h-3.557v13.0562Zm23.324,0h3.678v-14.5421h5.091v-3.0326h-13.848v3.0326h5.079v14.5421Zm11.138.207c1.718,0,3.106-.816,3.849-2.1557h.073v1.9487h3.556v-8.9518c0-2.6307-2.18-4.3723-5.553-4.3723-3.447,0-5.517,1.7294-5.712,4.1409l-.013.1462h3.252l.025-.1096c.17-.8404.974-1.4616,2.302-1.4616c1.388,0,2.143.7186,2.143,1.8757v.8038l-3.227.1949c-3.24.207-5.079,1.5954-5.079,3.9704v.0244c0,2.3018,1.766,3.946,4.384,3.946Zm-.864-4.1287v-.0244c0-.9256.718-1.5102,2.095-1.5955l2.691-.1705v.9378c0,1.3641-1.169,2.3872-2.765,2.3872-1.23,0-2.021-.5725-2.021-1.5346ZM328.193,78h3.556v-7.3076c0-1.8999,1.023-2.9474,2.777-2.9474.512,0,.999.0731,1.291.1949v-3.1301c-.268-.073-.633-.1339-1.023-.1339-1.522,0-2.582.9378-2.972,2.5454h-.073v-2.2775h-3.556v13.0562Zm10.675-14.7369c1.072,0,1.9-.8404,1.9-1.8513s-.828-1.8512-1.9-1.8512c-1.071,0-1.9.8403-1.9,1.8512s.829,1.8513,1.9,1.8513ZM335.97,82.2993c3.057,0,4.677-1.3763,4.677-4.0314v-13.3241h-3.557v13.2267c0,1.0596-.463,1.4372-1.644,1.4372-.158,0-.317-.0122-.451-.0244v2.6795c.22.0243.646.0365.975.0365Zm12.746-4.0314c3.726,0,5.529-2.2044,5.931-4.1287l.036-.134h-3.264l-.024.0731c-.256.7307-1.145,1.5346-2.606,1.5346-1.815,0-2.948-1.218-2.984-3.3006h8.988v-1.0962c0-3.9461-2.399-6.5402-6.224-6.5402-3.824,0-6.272,2.655-6.272,6.8082v.0122c0,4.1775,2.424,6.7716,6.419,6.7716Zm-.086-10.937c1.474,0,2.534.9378,2.753,2.7404h-5.542c.232-1.766,1.328-2.7404,2.789-2.7404Zm12.941,10.937c.743,0,1.315-.073,1.717-.1339v-2.6064c-.219.0244-.45.0609-.767.0609-1.072,0-1.62-.4141-1.62-1.632v-6.3333h2.387v-2.6794h-2.387v-3.191h-3.593v3.191h-1.814v2.6794h1.814v6.723c0,2.8012,1.364,3.9217,4.263,3.9217Zm7.192-.0609c1.717,0,3.106-.816,3.849-2.1557h.073v1.9487h3.556v-8.9518c0-2.6307-2.18-4.3723-5.554-4.3723-3.446,0-5.517,1.7294-5.712,4.1409l-.012.1462h3.252l.024-.1096c.171-.8404.975-1.4616,2.302-1.4616c1.389,0,2.144.7186,2.144,1.8757v.8038l-3.228.1949c-3.239.207-5.078,1.5954-5.078,3.9704v.0244c0,2.3018,1.766,3.946,4.384,3.946Zm-.865-4.1287v-.0244c0-.9256.719-1.5102,2.095-1.5955l2.692-.1705v.9378c0,1.3641-1.169,2.3872-2.765,2.3872-1.23,0-2.022-.5725-2.022-1.5346Z" fill="#f9f9f9"/></g></g>
<script><![CDATA[
!function(t,n){"object"==typeof exports&&"undefined"!=typeof module?module.exports=n():"function"==typeof __SVGATOR_DEFINE__&&__SVGATOR_DEFINE__.amd?__SVGATOR_DEFINE__(n):((t="undefined"!=typeof globalThis?globalThis:t||self).__SVGATOR_PLAYER__=t.__SVGATOR_PLAYER__||{},t.__SVGATOR_PLAYER__["5c7f360c"]=n())}(this,(function(){"use strict";function t(t,n){var e=Object.keys(t);if(Object.getOwnPropertySymbols){var r=Object.getOwnPropertySymbols(t);n&&(r=r.filter((function(n){return Object.getOwnPropertyDescriptor(t,n).enumerable}))),e.push.apply(e,r)}return e}function n(n){for(var e=1;e<arguments.length;e++){var r=null!=arguments[e]?arguments[e]:{};e%2?t(Object(r),!0).forEach((function(t){o(n,t,r[t])})):Object.getOwnPropertyDescriptors?Object.defineProperties(n,Object.getOwnPropertyDescriptors(r)):t(Object(r)).forEach((function(t){Object.defineProperty(n,t,Object.getOwnPropertyDescriptor(r,t))}))}return n}function e(t){return(e="function"==typeof Symbol&&"symbol"==typeof Symbol.iterator?function(t){return typeof t}:function(t){return t&&"function"==typeof Symbol&&t.constructor===Symbol&&t!==Symbol.prototype?"symbol":typeof t})(t)}function r(t,n){if(!(t instanceof n))throw new TypeError("Cannot call a class as a function")}function i(t,n){for(var e=0;e<n.length;e++){var r=n[e];r.enumerable=r.enumerable||!1,r.configurable=!0,"value"in r&&(r.writable=!0),Object.defineProperty(t,r.key,r)}}function u(t,n,e){return n&&i(t.prototype,n),e&&i(t,e),t}function o(t,n,e){return n in t?Object.defineProperty(t,n,{value:e,enumerable:!0,configurable:!0,writable:!0}):t[n]=e,t}function a(t){return(a=Object.setPrototypeOf?Object.getPrototypeOf:function(t){return t.__proto__||Object.getPrototypeOf(t)})(t)}function l(t,n){return(l=Object.setPrototypeOf||function(t,n){return t.__proto__=n,t})(t,n)}function s(){if("undefined"==typeof Reflect||!Reflect.construct)return!1;if(Reflect.construct.sham)return!1;if("function"==typeof Proxy)return!0;try{return Boolean.prototype.valueOf.call(Reflect.construct(Boolean,[],(function(){}))),!0}catch(t){return!1}}function f(t,n,e){return(f=s()?Reflect.construct:function(t,n,e){var r=[null];r.push.apply(r,n);var i=new(Function.bind.apply(t,r));return e&&l(i,e.prototype),i}).apply(null,arguments)}function c(t,n){if(n&&("object"==typeof n||"function"==typeof n))return n;if(void 0!==n)throw new TypeError("Derived constructors may only return object or undefined");return function(t){if(void 0===t)throw new ReferenceError("this hasn't been initialised - super() hasn't been called");return t}(t)}function h(t,n,e){return(h="undefined"!=typeof Reflect&&Reflect.get?Reflect.get:function(t,n,e){var r=function(t,n){for(;!Object.prototype.hasOwnProperty.call(t,n)&&null!==(t=a(t)););return t}(t,n);if(r){var i=Object.getOwnPropertyDescriptor(r,n);return i.get?i.get.call(e):i.value}})(t,n,e||t)}function v(t){return function(t){if(Array.isArray(t))return y(t)}(t)||function(t){if("undefined"!=typeof Symbol&&null!=t[Symbol.iterator]||null!=t["@@iterator"])return Array.from(t)}(t)||function(t,n){if(!t)return;if("string"==typeof t)return y(t,n);var e=Object.prototype.toString.call(t).slice(8,-1);"Object"===e&&t.constructor&&(e=t.constructor.name);if("Map"===e||"Set"===e)return Array.from(t);if("Arguments"===e||/^(?:Ui|I)nt(?:8|16|32)(?:Clamped)?Array$/.test(e))return y(t,n)}(t)||function(){throw new TypeError("Invalid attempt to spread non-iterable instance.\nIn order to be iterable, non-array objects must have a [Symbol.iterator]() method.")}()}function y(t,n){(null==n||n>t.length)&&(n=t.length);for(var e=0,r=new Array(n);e<n;e++)r[e]=t[e];return r}Number.isInteger||(Number.isInteger=function(t){return"number"==typeof t&&isFinite(t)&&Math.floor(t)===t}),Number.EPSILON||(Number.EPSILON=2220446049250313e-31);var g=d(Math.pow(10,-6));function d(t){var n=arguments.length>1&&void 0!==arguments[1]?arguments[1]:6;if(Number.isInteger(t))return t;var e=Math.pow(10,n);return Math.round((+t+Number.EPSILON)*e)/e}function p(t,n){var e=arguments.length>2&&void 0!==arguments[2]?arguments[2]:g;return Math.abs(t-n)<e}var m=Math.PI/180;function b(t){return t}function w(t,n,e){var r=1-e;return 3*e*r*(t*r+n*e)+e*e*e}function A(){var t=arguments.length>0&&void 0!==arguments[0]?arguments[0]:0,n=arguments.length>1&&void 0!==arguments[1]?arguments[1]:0,e=arguments.length>2&&void 0!==arguments[2]?arguments[2]:1,r=arguments.length>3&&void 0!==arguments[3]?arguments[3]:1;return t<0||t>1||e<0||e>1?null:p(t,n)&&p(e,r)?b:function(i){if(i<=0)return t>0?i*n/t:0===n&&e>0?i*r/e:0;if(i>=1)return e<1?1+(i-1)*(r-1)/(e-1):1===e&&t<1?1+(i-1)*(n-1)/(t-1):1;for(var u,o=0,a=1;o<a;){var l=w(t,e,u=(o+a)/2);if(p(i,l))break;l<i?o=u:a=u}return w(n,r,u)}}function _(){return 1}function x(t){return 1===t?1:0}function k(){var t=arguments.length>0&&void 0!==arguments[0]?arguments[0]:1,n=arguments.length>1&&void 0!==arguments[1]?arguments[1]:0;if(1===t){if(0===n)return x;if(1===n)return _}var e=1/t;return function(t){return t>=1?1:(t+=n*e)-t%e}}var S=Math.sin,O=Math.cos,j=Math.acos,E=Math.asin,M=Math.tan,P=Math.atan2,I=Math.PI/180,R=180/Math.PI,F=Math.sqrt,N=function(){function t(){var n=arguments.length>0&&void 0!==arguments[0]?arguments[0]:1,e=arguments.length>1&&void 0!==arguments[1]?arguments[1]:0,i=arguments.length>2&&void 0!==arguments[2]?arguments[2]:0,u=arguments.length>3&&void 0!==arguments[3]?arguments[3]:1,o=arguments.length>4&&void 0!==arguments[4]?arguments[4]:0,a=arguments.length>5&&void 0!==arguments[5]?arguments[5]:0;r(this,t),this.m=[n,e,i,u,o,a],this.i=null,this.w=null,this.s=null}return u(t,[{key:"determinant",get:function(){var t=this.m;return t[0]*t[3]-t[1]*t[2]}},{key:"isIdentity",get:function(){if(null===this.i){var t=this.m;this.i=1===t[0]&&0===t[1]&&0===t[2]&&1===t[3]&&0===t[4]&&0===t[5]}return this.i}},{key:"point",value:function(t,n){var e=this.m;return{x:e[0]*t+e[2]*n+e[4],y:e[1]*t+e[3]*n+e[5]}}},{key:"translateSelf",value:function(){var t=arguments.length>0&&void 0!==arguments[0]?arguments[0]:0,n=arguments.length>1&&void 0!==arguments[1]?arguments[1]:0;if(!t&&!n)return this;var e=this.m;return e[4]+=e[0]*t+e[2]*n,e[5]+=e[1]*t+e[3]*n,this.w=this.s=this.i=null,this}},{key:"rotateSelf",value:function(){var t=arguments.length>0&&void 0!==arguments[0]?arguments[0]:0;if(t%=360){var n=S(t*=I),e=O(t),r=this.m,i=r[0],u=r[1];r[0]=i*e+r[2]*n,r[1]=u*e+r[3]*n,r[2]=r[2]*e-i*n,r[3]=r[3]*e-u*n,this.w=this.s=this.i=null}return this}},{key:"scaleSelf",value:function(){var t=arguments.length>0&&void 0!==arguments[0]?arguments[0]:1,n=arguments.length>1&&void 0!==arguments[1]?arguments[1]:1;if(1!==t||1!==n){var e=this.m;e[0]*=t,e[1]*=t,e[2]*=n,e[3]*=n,this.w=this.s=this.i=null}return this}},{key:"skewSelf",value:function(t,n){if(n%=360,(t%=360)||n){var e=this.m,r=e[0],i=e[1],u=e[2],o=e[3];t&&(t=M(t*I),e[2]+=r*t,e[3]+=i*t),n&&(n=M(n*I),e[0]+=u*n,e[1]+=o*n),this.w=this.s=this.i=null}return this}},{key:"resetSelf",value:function(){var t=arguments.length>0&&void 0!==arguments[0]?arguments[0]:1,n=arguments.length>1&&void 0!==arguments[1]?arguments[1]:0,e=arguments.length>2&&void 0!==arguments[2]?arguments[2]:0,r=arguments.length>3&&void 0!==arguments[3]?arguments[3]:1,i=arguments.length>4&&void 0!==arguments[4]?arguments[4]:0,u=arguments.length>5&&void 0!==arguments[5]?arguments[5]:0,o=this.m;return o[0]=t,o[1]=n,o[2]=e,o[3]=r,o[4]=i,o[5]=u,this.w=this.s=this.i=null,this}},{key:"recomposeSelf",value:function(){var t=arguments.length>0&&void 0!==arguments[0]?arguments[0]:null,n=arguments.length>1&&void 0!==arguments[1]?arguments[1]:null,e=arguments.length>2&&void 0!==arguments[2]?arguments[2]:null,r=arguments.length>3&&void 0!==arguments[3]?arguments[3]:null,i=arguments.length>4&&void 0!==arguments[4]?arguments[4]:null;return this.isIdentity||this.resetSelf(),t&&(t.x||t.y)&&this.translateSelf(t.x,t.y),n&&this.rotateSelf(n),e&&(e.x&&this.skewSelf(e.x,0),e.y&&this.skewSelf(0,e.y)),!r||1===r.x&&1===r.y||this.scaleSelf(r.x,r.y),i&&(i.x||i.y)&&this.translateSelf(i.x,i.y),this}},{key:"decompose",value:function(){var t=arguments.length>0&&void 0!==arguments[0]?arguments[0]:0,n=arguments.length>1&&void 0!==arguments[1]?arguments[1]:0,e=this.m,r=e[0]*e[0]+e[1]*e[1],i=[[e[0],e[1]],[e[2],e[3]]],u=F(r);if(0===u)return{origin:{x:d(e[4]),y:d(e[5])},translate:{x:d(t),y:d(n)},scale:{x:0,y:0},skew:{x:0,y:0},rotate:0};i[0][0]/=u,i[0][1]/=u;var o=e[0]*e[3]-e[1]*e[2]<0;o&&(u=-u);var a=i[0][0]*i[1][0]+i[0][1]*i[1][1];i[1][0]-=i[0][0]*a,i[1][1]-=i[0][1]*a;var l=F(i[1][0]*i[1][0]+i[1][1]*i[1][1]);if(0===l)return{origin:{x:d(e[4]),y:d(e[5])},translate:{x:d(t),y:d(n)},scale:{x:d(u),y:0},skew:{x:0,y:0},rotate:0};i[1][0]/=l,i[1][1]/=l,a/=l;var s=0;return i[1][1]<0?(s=j(i[1][1])*R,i[0][1]<0&&(s=360-s)):s=E(i[0][1])*R,o&&(s=-s),a=P(a,F(i[0][0]*i[0][0]+i[0][1]*i[0][1]))*R,o&&(a=-a),{origin:{x:d(e[4]),y:d(e[5])},translate:{x:d(t),y:d(n)},scale:{x:d(u),y:d(l)},skew:{x:d(a),y:0},rotate:d(s)}}},{key:"clone",value:function(){var t=this.m;return new this.constructor(t[0],t[1],t[2],t[3],t[4],t[5])}},{key:"toString",value:function(){var t=arguments.length>0&&void 0!==arguments[0]?arguments[0]:" ";if(null===this.s){var n=this.m.map((function(t){return d(t)}));1===n[0]&&0===n[1]&&0===n[2]&&1===n[3]?this.s="translate("+n[4]+t+n[5]+")":this.s="matrix("+n.join(t)+")"}return this.s}}],[{key:"create",value:function(t){return t?Array.isArray(t)?f(this,v(t)):t instanceof this?t.clone():(new this).recomposeSelf(t.origin,t.rotate,t.skew,t.scale,t.translate):new this}}]),t}();function T(t,n,e){return t>=.5?e:n}function B(t,n,e){return 0===t||n===e?n:t*(e-n)+n}function q(t,n,e){var r=B(t,n,e);return r<=0?0:r}function D(t,n,e){var r=B(t,n,e);return r<=0?0:r>=1?1:r}function L(t,n,e){return 0===t?n:1===t?e:{x:B(t,n.x,e.x),y:B(t,n.y,e.y)}}function C(t,n,e){var r=function(t,n,e){return Math.round(B(t,n,e))}(t,n,e);return r<=0?0:r>=255?255:r}function V(t,n,e){return 0===t?n:1===t?e:{r:C(t,n.r,e.r),g:C(t,n.g,e.g),b:C(t,n.b,e.b),a:B(t,null==n.a?1:n.a,null==e.a?1:e.a)}}function G(t,n){for(var e=[],r=0;r<t;r++)e.push(n);return e}function z(t,n){if(--n<=0)return t;var e=(t=Object.assign([],t)).length;do{for(var r=0;r<e;r++)t.push(t[r])}while(--n>0);return t}var Y,$=function(){function t(n){r(this,t),this.list=n,this.length=n.length}return u(t,[{key:"setAttribute",value:function(t,n){for(var e=this.list,r=0;r<this.length;r++)e[r].setAttribute(t,n)}},{key:"removeAttribute",value:function(t){for(var n=this.list,e=0;e<this.length;e++)n[e].removeAttribute(t)}},{key:"style",value:function(t,n){for(var e=this.list,r=0;r<this.length;r++)e[r].style[t]=n}}]),t}(),U=/-./g,Q=function(t,n){return n.toUpperCase()};function H(t){return"function"==typeof t?t:T}function J(t){return t?"function"==typeof t?t:Array.isArray(t)?function(t){var n=arguments.length>1&&void 0!==arguments[1]?arguments[1]:b;if(!Array.isArray(t))return n;switch(t.length){case 1:return k(t[0])||n;case 2:return k(t[0],t[1])||n;case 4:return A(t[0],t[1],t[2],t[3])||n}return n}(t,null):function(t,n){var e=arguments.length>2&&void 0!==arguments[2]?arguments[2]:b;switch(t){case"linear":return b;case"steps":return k(n.steps||1,n.jump||0)||e;case"bezier":case"cubic-bezier":return A(n.x1||0,n.y1||0,n.x2||0,n.y2||0)||e}return e}(t.type,t.value,null):null}function Z(t,n,e){var r=arguments.length>3&&void 0!==arguments[3]&&arguments[3],i=n.length-1;if(t<=n[0].t)return r?[0,0,n[0].v]:n[0].v;if(t>=n[i].t)return r?[i,1,n[i].v]:n[i].v;var u,o=n[0],a=null;for(u=1;u<=i;u++){if(!(t>n[u].t)){a=n[u];break}o=n[u]}return null==a?r?[i,1,n[i].v]:n[i].v:o.t===a.t?r?[u,1,a.v]:a.v:(t=(t-o.t)/(a.t-o.t),o.e&&(t=o.e(t)),r?[u,t,e(t,o.v,a.v)]:e(t,o.v,a.v))}function K(t,n){var e=arguments.length>2&&void 0!==arguments[2]?arguments[2]:null;return t&&t.length?"function"!=typeof n?null:("function"!=typeof e&&(e=null),function(r){var i=Z(r,t,n);return null!=i&&e&&(i=e(i)),i}):null}function W(t,n){return t.t-n.t}function X(t,n,r,i,u){var o,a="@"===r[0],l="#"===r[0],s=Y[r],f=T;switch(a?(o=r.substr(1),r=o.replace(U,Q)):l&&(r=r.substr(1)),e(s)){case"function":if(f=s(i,u,Z,J,r,a,n,t),l)return f;break;case"string":f=K(i,H(s));break;case"object":if((f=K(i,H(s.i),s.f))&&"function"==typeof s.u)return s.u(n,f,r,a,t)}return f?function(t,n,e){if(arguments.length>3&&void 0!==arguments[3]&&arguments[3])return t instanceof $?function(r){return t.style(n,e(r))}:function(r){return t.style[n]=e(r)};if(Array.isArray(n)){var r=n.length;return function(i){var u=e(i);if(null==u)for(var o=0;o<r;o++)t[o].removeAttribute(n);else for(var a=0;a<r;a++)t[a].setAttribute(n,u)}}return function(r){var i=e(r);null==i?t.removeAttribute(n):t.setAttribute(n,i)}}(n,r,f,a):null}function tt(t,n,r,i){if(!i||"object"!==e(i))return null;var u=null,o=null;return Array.isArray(i)?o=function(t){if(!t||!t.length)return null;for(var n=0;n<t.length;n++)t[n].e&&(t[n].e=J(t[n].e));return t.sort(W)}(i):(o=i.keys,u=i.data||null),o?X(t,n,r,o,u):null}function nt(t,n,e){if(!e)return null;var r=[];for(var i in e)if(e.hasOwnProperty(i)){var u=tt(t,n,i,e[i]);u&&r.push(u)}return r.length?r:null}function et(t,n){if(!n.settings.duration||n.settings.duration<0)return null;var e,r,i,u,o,a=function(t,n){if(!n)return null;var e=[];if(Array.isArray(n))for(var r=n.length,i=0;i<r;i++){var u=n[i];if(2===u.length){var o=null;if("string"==typeof u[0])o=t.getElementById(u[0]);else if(Array.isArray(u[0])){o=[];for(var a=0;a<u[0].length;a++)if("string"==typeof u[0][a]){var l=t.getElementById(u[0][a]);l&&o.push(l)}o=o.length?1===o.length?o[0]:new $(o):null}if(o){var s=nt(t,o,u[1]);s&&(e=e.concat(s))}}}else for(var f in n)if(n.hasOwnProperty(f)){var c=t.getElementById(f);if(c){var h=nt(t,c,n[f]);h&&(e=e.concat(h))}}return e.length?e:null}(t,n.elements);return a?(e=a,r=n.settings,i=r.duration,u=e.length,o=null,function(t,n){var a=r.iterations||1/0,l=(r.alternate&&a%2==0)^r.direction>0?i:0,s=t%i,f=1+(t-s)/i;n*=r.direction,r.alternate&&f%2==0&&(n=-n);var c=!1;if(f>a)s=l,c=!0,-1===r.fill&&(s=r.direction>0?0:i);else if(n<0&&(s=i-s),s===o)return!1;o=s;for(var h=0;h<u;h++)e[h](s);return c}):null}function rt(t,n){if(Y=n,!t||!t.root||!Array.isArray(t.animations))return null;var e=function(t){for(var n=document.getElementsByTagName("svg"),e=0;e<n.length;e++)if(n[e].id===t.root&&!n[e].svgatorAnimation)return n[e].svgatorAnimation=!0,n[e];return null}(t);if(!e)return null;var r=t.animations.map((function(t){return et(e,t)})).filter((function(t){return!!t}));return r.length?{svg:e,animations:r,animationSettings:t.animationSettings,options:t.options||void 0}:null}function it(t){var n=arguments.length>1&&void 0!==arguments[1]?arguments[1]:null,e=arguments.length>2&&void 0!==arguments[2]?arguments[2]:Number,r=arguments.length>3&&void 0!==arguments[3]?arguments[3]:"undefined"!=typeof BigInt&&BigInt,i="0x"+(t.replace(/[^0-9a-fA-F]+/g,"")||27);return n&&r&&e.isSafeInteger&&!e.isSafeInteger(+i)?e(r(i))%n+n:+i}function ut(t,n,e){return!t||!e||n>t.length?t:t.substring(0,n)+ut(t.substring(n+1),e,e)}function ot(t){var n=arguments.length>1&&void 0!==arguments[1]?arguments[1]:27;return!t||t%n?t%n:[0,1].includes(n)?n:ot(t/n,n)}function at(t,n,e){if(t&&t.length){var r=it(e),i=ot(r)+5,u=ut(t,ot(r,5),i);return u=u.replace(/\x7c$/g,"==").replace(/\x2f$/g,"="),u=function(t,n,e){var r=+("0x"+t.substring(0,4));t=t.substring(4);for(var i=it(n,r)%r+e%27,u=[],o=0;o<t.length;o+=2)if("|"!==t[o]){var a=+("0x"+t[o]+t[o+1])-i;u.push(a)}else{var l=+("0x"+t.substring(o+1,o+1+4))-i;o+=3,u.push(l)}return String.fromCharCode.apply(String,u)}(u=(u=atob(u)).replace(/[\x41-\x5A]/g,""),n,r),u=JSON.parse(u)}}var lt=[{key:"alternate",def:!1},{key:"fill",def:1},{key:"iterations",def:0},{key:"direction",def:1},{key:"speed",def:1},{key:"fps",def:100}],st=function(){function t(n,e){var i=this,u=arguments.length>2&&void 0!==arguments[2]?arguments[2]:null;r(this,t),this._id=0,this._running=!1,this._rollingBack=!1,this._animations=n,this._settings=e,(!u||u<"2022-05-02")&&delete this._settings.speed,lt.forEach((function(t){i._settings[t.key]=i._settings[t.key]||t.def})),this.duration=e.duration,this.offset=e.offset||0,this.rollbackStartOffset=0}return u(t,[{key:"alternate",get:function(){return this._settings.alternate}},{key:"fill",get:function(){return this._settings.fill}},{key:"iterations",get:function(){return this._settings.iterations}},{key:"direction",get:function(){return this._settings.direction}},{key:"speed",get:function(){return this._settings.speed}},{key:"fps",get:function(){return this._settings.fps}},{key:"maxFiniteDuration",get:function(){return this.iterations>0?this.iterations*this.duration:this.duration}},{key:"_apply",value:function(t){for(var n=arguments.length>1&&void 0!==arguments[1]?arguments[1]:{},e=this._animations,r=e.length,i=0,u=0;u<r;u++)n[u]?i++:(n[u]=e[u](t,1),n[u]&&i++);return i}},{key:"_rollback",value:function(t){var n=this,e=1/0,r=null;this.rollbackStartOffset=t,this._rollingBack=!0,this._running=!0;this._id=window.requestAnimationFrame((function i(u){if(n._rollingBack){null==r&&(r=u);var o=Math.round(t-(u-r)*n.speed);if(o>n.duration&&e!==1/0){var a=!!n.alternate&&o/n.duration%2>1,l=o%n.duration;o=(l+=a?n.duration:0)||n.duration}var s=(n.fps?1e3/n.fps:0)*n.speed,f=Math.max(0,o);f<=e-s&&(n.offset=f,e=f,n._apply(f));var c=n.iterations>0&&-1===n.fill&&o>=n.maxFiniteDuration;(o<=0||n.offset<o||c)&&n.stop(),n._id=window.requestAnimationFrame(i)}}))}},{key:"_start",value:function(){var t=this,n=arguments.length>0&&void 0!==arguments[0]?arguments[0]:0,e=-1/0,r=null,i={};this._running=!0;var u=function u(o){null==r&&(r=o);var a=Math.round((o-r)*t.speed+n),l=(t.fps?1e3/t.fps:0)*t.speed;if(a>=e+l&&!t._rollingBack&&(t.offset=a,e=a,t._apply(a,i)===t._animations.length))return void t.pause(!0);t._id=window.requestAnimationFrame(u)};this._id=window.requestAnimationFrame(u)}},{key:"_pause",value:function(){this._id&&window.cancelAnimationFrame(this._id),this._running=!1}},{key:"play",value:function(){if(!this._running)return this._rollingBack?this._rollback(this.offset):this._start(this.offset)}},{key:"stop",value:function(){this._pause(),this.offset=0,this.rollbackStartOffset=0,this._rollingBack=!1,this._apply(0)}},{key:"reachedToEnd",value:function(){return this.iterations>0&&this.offset>=this.iterations*this.duration}},{key:"restart",value:function(){var t=arguments.length>0&&void 0!==arguments[0]&&arguments[0];this.stop(t),this.play(t)}},{key:"pause",value:function(){this._pause()}},{key:"reverse",value:function(){this.direction=-this.direction}}],[{key:"build",value:function(t,n){delete t.animationSettings,t.options=at(t.options,t.root,"5c7f360c"),t.animations.map((function(n){n.settings=at(n.s,t.root,"5c7f360c"),delete n.s,t.animationSettings||(t.animationSettings=n.settings)}));var e=t.version;if(!(t=rt(t,n)))return null;var r=t.options||{},i=new this(t.animations,t.animationSettings,e);return{el:t.svg,options:r,player:i}}},{key:"push",value:function(t){return this.build(t)}},{key:"init",value:function(){var t=this,n=window.__SVGATOR_PLAYER__&&window.__SVGATOR_PLAYER__["5c7f360c"];Array.isArray(n)&&n.splice(0).forEach((function(n){return t.build(n)}))}}]),t}();function ft(t){return d(t)+""}function ct(t){var n=arguments.length>1&&void 0!==arguments[1]?arguments[1]:" ";return t&&t.length?t.map(ft).join(n):""}function ht(t){if(!t)return"transparent";if(null==t.a||t.a>=1){var n=function(t){return 1===(t=parseInt(t).toString(16)).length?"0"+t:t},e=function(t){return t.charAt(0)===t.charAt(1)},r=n(t.r),i=n(t.g),u=n(t.b);return e(r)&&e(i)&&e(u)&&(r=r.charAt(0),i=i.charAt(0),u=u.charAt(0)),"#"+r+i+u}return"rgba("+t.r+","+t.g+","+t.b+","+t.a+")"}function vt(t){return t?"url(#"+t+")":"none"}!function(){for(var t=0,n=["ms","moz","webkit","o"],e=0;e<n.length&&!window.requestAnimationFrame;++e)window.requestAnimationFrame=window[n[e]+"RequestAnimationFrame"],window.cancelAnimationFrame=window[n[e]+"CancelAnimationFrame"]||window[n[e]+"CancelRequestAnimationFrame"];window.requestAnimationFrame||(window.requestAnimationFrame=function(n){var e=Date.now(),r=Math.max(0,16-(e-t)),i=window.setTimeout((function(){n(e+r)}),r);return t=e+r,i},window.cancelAnimationFrame=window.clearTimeout)}();var yt={f:null,i:function(t,n,e){return 0===t?n:1===t?e:{x:q(t,n.x,e.x),y:q(t,n.y,e.y)}},u:function(t,n){return function(e){var r=n(e);t.setAttribute("rx",ft(r.x)),t.setAttribute("ry",ft(r.y))}}},gt={f:null,i:function(t,n,e){return 0===t?n:1===t?e:{width:q(t,n.width,e.width),height:q(t,n.height,e.height)}},u:function(t,n){return function(e){var r=n(e);t.setAttribute("width",ft(r.width)),t.setAttribute("height",ft(r.height))}}};Object.freeze({M:2,L:2,Z:0,H:1,V:1,C:6,Q:4,T:2,S:4,A:7});var dt={},pt=null;function mt(t){var n=function(){if(pt)return pt;if("object"!==("undefined"==typeof document?"undefined":e(document))||!document.createElementNS)return{};var t=document.createElementNS("http://www.w3.org/2000/svg","svg");return t&&t.style?(t.style.position="absolute",t.style.opacity="0.01",t.style.zIndex="-9999",t.style.left="-9999px",t.style.width="1px",t.style.height="1px",pt={svg:t}):{}}().svg;if(!n)return function(t){return null};var r=document.createElementNS(n.namespaceURI,"path");r.setAttributeNS(null,"d",t),r.setAttributeNS(null,"fill","none"),r.setAttributeNS(null,"stroke","none"),n.appendChild(r);var i=r.getTotalLength();return function(t){var n=r.getPointAtLength(i*t);return{x:n.x,y:n.y}}}function bt(t){return dt[t]?dt[t]:dt[t]=mt(t)}function wt(t,n,e,r){if(!t||!r)return!1;var i=["M",t.x,t.y];if(n&&e&&(i.push("C"),i.push(n.x),i.push(n.y),i.push(e.x),i.push(e.y)),n?!e:e){var u=n||e;i.push("Q"),i.push(u.x),i.push(u.y)}return n||e||i.push("L"),i.push(r.x),i.push(r.y),i.join(" ")}function At(t,n,e,r){var i=arguments.length>4&&void 0!==arguments[4]?arguments[4]:1,u=wt(t,n,e,r),o=bt(u);try{return o(i)}catch(t){return null}}function _t(t,n,e){return t+(n-t)*e}function xt(t,n,e){var r=arguments.length>3&&void 0!==arguments[3]&&arguments[3],i={x:_t(t.x,n.x,e),y:_t(t.y,n.y,e)};return r&&(i.a=kt(t,n)),i}function kt(t,n){return Math.atan2(n.y-t.y,n.x-t.x)}function St(t,n,e,r){var i=1-r;return i*i*t+2*i*r*n+r*r*e}function Ot(t,n,e,r){return 2*(1-r)*(n-t)+2*r*(e-n)}function jt(t,n,e,r){var i=arguments.length>4&&void 0!==arguments[4]&&arguments[4],u=At(t,n,null,e,r);return u||(u={x:St(t.x,n.x,e.x,r),y:St(t.y,n.y,e.y,r)}),i&&(u.a=Et(t,n,e,r)),u}function Et(t,n,e,r){return Math.atan2(Ot(t.y,n.y,e.y,r),Ot(t.x,n.x,e.x,r))}function Mt(t,n,e,r,i){var u=i*i;return i*u*(r-t+3*(n-e))+3*u*(t+e-2*n)+3*i*(n-t)+t}function Pt(t,n,e,r,i){var u=1-i;return 3*(u*u*(n-t)+2*u*i*(e-n)+i*i*(r-e))}function It(t,n,e,r,i){var u=arguments.length>5&&void 0!==arguments[5]&&arguments[5],o=At(t,n,e,r,i);return o||(o={x:Mt(t.x,n.x,e.x,r.x,i),y:Mt(t.y,n.y,e.y,r.y,i)}),u&&(o.a=Rt(t,n,e,r,i)),o}function Rt(t,n,e,r,i){return Math.atan2(Pt(t.y,n.y,e.y,r.y,i),Pt(t.x,n.x,e.x,r.x,i))}function Ft(t,n,e){var r=arguments.length>3&&void 0!==arguments[3]&&arguments[3];if(Tt(n)){if(Bt(e))return jt(n,e.start,e,t,r)}else if(Tt(e)){if(qt(n))return jt(n,n.end,e,t,r)}else{if(qt(n))return Bt(e)?It(n,n.end,e.start,e,t,r):jt(n,n.end,e,t,r);if(Bt(e))return jt(n,e.start,e,t,r)}return xt(n,e,t,r)}function Nt(t,n,e){var r=Ft(t,n,e,!0);return r.a=function(t){return arguments.length>1&&void 0!==arguments[1]&&arguments[1]?t+Math.PI:t}(r.a)/m,r}function Tt(t){return!t.type||"corner"===t.type}function Bt(t){return null!=t.start&&!Tt(t)}function qt(t){return null!=t.end&&!Tt(t)}var Dt=new N;var Lt={f:ft,i:B},Ct={f:ft,i:D};function Vt(t,n,e){return t.map((function(t){return function(t,n,e){var r=t.v;if(!r||"g"!==r.t||r.s||!r.v||!r.r)return t;var i=e.getElementById(r.r),u=i&&i.querySelectorAll("stop")||[];return r.s=r.v.map((function(t,n){var e=u[n]&&u[n].getAttribute("offset");return{c:t,o:e=d(parseInt(e)/100)}})),delete r.v,t}(t,0,e)}))}var Gt={gt:"gradientTransform",c:{x:"cx",y:"cy"},rd:"r",f:{x:"x1",y:"y1"},to:{x:"x2",y:"y2"}};function zt(t,n,r,i,u,o,a,l){return Vt(t,0,l),n=function(t,n,e){for(var r,i,u,o=t.length-1,a={},l=0;l<=o;l++)(r=t[l]).e&&(r.e=n(r.e)),r.v&&"g"===(i=r.v).t&&i.r&&(u=e.getElementById(i.r))&&(a[i.r]={e:u,s:u.querySelectorAll("stop")});return a}(t,i,l),function(i){var u=r(i,t,Yt);if(!u)return"none";if("c"===u.t)return ht(u.v);if("g"===u.t){if(!n[u.r])return vt(u.r);var o=n[u.r];return function(t,n){for(var e=t.s,r=e.length;r<n.length;r++){var i=e[e.length-1].cloneNode();i.id=Qt(i.id),t.e.appendChild(i),e=t.s=t.e.querySelectorAll("stop")}for(var u=0,o=e.length,a=n.length-1;u<o;u++)e[u].setAttribute("stop-color",ht(n[Math.min(u,a)].c)),e[u].setAttribute("offset",n[Math.min(u,a)].o)}(o,u.s),Object.keys(Gt).forEach((function(t){if(void 0!==u[t])if("object"!==e(Gt[t])){var n,r="gt"===t?(n=u[t],Array.isArray(n)?"matrix("+n.join(" ")+")":""):u[t],i=Gt[t];o.e.setAttribute(i,r)}else Object.keys(Gt[t]).forEach((function(n){if(void 0!==u[t][n]){var e=u[t][n],r=Gt[t][n];o.e.setAttribute(r,e)}}))})),vt(u.r)}return"none"}}function Yt(t,e,r){if(0===t)return e;if(1===t)return r;if(e&&r){var i=e.t;if(i===r.t)switch(e.t){case"c":return{t:i,v:V(t,e.v,r.v)};case"g":if(e.r===r.r){var u={t:i,s:$t(t,e.s,r.s),r:e.r};return e.gt&&r.gt&&(u.gt=function(t,n,e){var r=n.length;if(r!==e.length)return T(t,n,e);for(var i=new Array(r),u=0;u<r;u++)i[u]=B(t,n[u],e[u]);return i}(t,e.gt,r.gt)),e.c?(u.c=L(t,e.c,r.c),u.rd=q(t,e.rd,r.rd)):e.f&&(u.f=L(t,e.f,r.f),u.to=L(t,e.to,r.to)),u}}if("c"===e.t&&"g"===r.t||"c"===r.t&&"g"===e.t){var o="c"===e.t?e:r,a="g"===e.t?n({},e):n({},r),l=a.s.map((function(t){return{c:o.v,o:t.o}}));return a.s="c"===e.t?$t(t,l,a.s):$t(t,a.s,l),a}}return T(t,e,r)}function $t(t,n,e){if(n.length===e.length)return n.map((function(n,r){return Ut(t,n,e[r])}));for(var r=Math.max(n.length,e.length),i=[],u=0;u<r;u++){var o=Ut(t,n[Math.min(u,n.length-1)],e[Math.min(u,e.length-1)]);i.push(o)}return i}function Ut(t,n,e){return{o:D(t,n.o,e.o||0),c:V(t,n.c,e.c||{})}}function Qt(t){return t.replace(/-fill-([0-9]+)$/,(function(t,n){return"-fill-"+(+n+1)}))}var Ht={fill:zt,"fill-opacity":Ct,stroke:zt,"stroke-opacity":Ct,"stroke-width":Lt,"stroke-dashoffset":{f:ft,i:B},"stroke-dasharray":{f:function(t){var n=arguments.length>1&&void 0!==arguments[1]?arguments[1]:" ";return t&&t.length>0&&(t=t.map((function(t){return d(t,4)}))),ct(t,n)},i:function(t,n,e){var r,i,u,o=n.length,a=e.length;if(o!==a)if(0===o)n=G(o=a,0);else if(0===a)a=o,e=G(o,0);else{var l=(u=(r=o)*(i=a)/function(t,n){for(var e;n;)e=n,n=t%n,t=e;return t||1}(r,i))<0?-u:u;n=z(n,Math.floor(l/o)),e=z(e,Math.floor(l/a)),o=a=l}for(var s=[],f=0;f<o;f++)s.push(d(q(t,n[f],e[f])));return s}},opacity:Ct,transform:function(t,n,r,i){if(!(t=function(t,n){if(!t||"object"!==e(t))return null;var r=!1;for(var i in t)t.hasOwnProperty(i)&&(t[i]&&t[i].length?(t[i].forEach((function(t){t.e&&(t.e=n(t.e))})),r=!0):delete t[i]);return r?t:null}(t,i)))return null;var u=function(e,i,u){var o=arguments.length>3&&void 0!==arguments[3]?arguments[3]:null;return t[e]?r(i,t[e],u):n&&n[e]?n[e]:o};return n&&n.a&&t.o?function(n){var e=r(n,t.o,Nt);return Dt.recomposeSelf(e,u("r",n,B,0)+e.a,u("k",n,L),u("s",n,L),u("t",n,L)).toString()}:function(t){return Dt.recomposeSelf(u("o",t,Ft,null),u("r",t,B,0),u("k",t,L),u("s",t,L),u("t",t,L)).toString()}},r:Lt,"#size":gt,"#radius":yt,_:function(t,n){if(Array.isArray(t))for(var e=0;e<t.length;e++)this[t[e]]=n;else this[t]=n}},Jt=function(t){!function(t,n){if("function"!=typeof n&&null!==n)throw new TypeError("Super expression must either be null or a function");t.prototype=Object.create(n&&n.prototype,{constructor:{value:t,writable:!0,configurable:!0}}),n&&l(t,n)}(o,t);var n,e,i=(n=o,e=s(),function(){var t,r=a(n);if(e){var i=a(this).constructor;t=Reflect.construct(r,arguments,i)}else t=r.apply(this,arguments);return c(this,t)});function o(){return r(this,o),i.apply(this,arguments)}return u(o,null,[{key:"build",value:function(t){var n=h(a(o),"build",this).call(this,t,Ht);if(!n)return null;n.el,n.options,function(t,n,e){t.play()}(n.player)}}]),o}(st);return Jt.init(),Jt}));
(function(s,i,o,w,d,a,b){w[o]=w[o]||{};w[o][s]=w[o][s]||[];w[o][s].push(i);})('5c7f360c',{"root":"eoLTNReZP9B1","version":"2022-05-04","animations":[{"elements":{"eoLTNReZP9B18":{"opacity":[{"t":0,"v":1},{"t":1000,"v":0}]},"eoLTNReZP9B19":{"opacity":[{"t":1000,"v":0},{"t":2000,"v":1}]},"eoLTNReZP9B20":{"opacity":[{"t":2000,"v":0},{"t":3000,"v":1}]},"eoLTNReZP9B21":{"opacity":[{"t":3000,"v":0},{"t":4000,"v":1}]},"eoLTNReZP9B22":{"opacity":[{"t":4000,"v":0},{"t":5000,"v":1}]},"eoLTNReZP9B38":{"transform":{"data":{"o":{"x":670.730926,"y":314.334928,"type":"corner"},"t":{"x":-672.5,"y":-314.401352}},"keys":{"s":[{"t":0,"v":{"x":1.001495,"y":1.038668}},{"t":470,"v":{"x":1.2,"y":1.2}},{"t":2400,"v":{"x":1.2,"y":1.2}},{"t":3000,"v":{"x":1,"y":1}}]}}},"eoLTNReZP9B43":{"opacity":[{"t":0,"v":0},{"t":500,"v":1},{"t":2000,"v":1},{"t":2500,"v":0},{"t":3000,"v":0}]},"eoLTNReZP9B44":{"transform":{"data":{"t":{"x":-0.141361,"y":-0.000012}},"keys":{"o":[{"t":0,"v":{"x":734.867649,"y":314.978012,"type":"corner"}},{"t":500,"v":{"x":748.493409,"y":314.978012,"type":"corner"}},{"t":2000,"v":{"x":747.953979,"y":314.978012,"type":"corner"}},{"t":2500,"v":{"x":735.580979,"y":314.978012,"type":"corner"}},{"t":3000,"v":{"x":735.580979,"y":314.978012,"type":"corner"}}]}}},"eoLTNReZP9B46":{"transform":{"data":{"o":{"x":285.296005,"y":320.046021,"type":"corner"},"t":{"x":-224.296005,"y":-229.046021}},"keys":{"s":[{"t":0,"v":{"x":1,"y":0.879535}},{"t":770,"v":{"x":1,"y":1.012526}},{"t":2000,"v":{"x":1,"y":1.012526}},{"t":3000,"v":{"x":1,"y":0.879535}}]}}},"eoLTNReZP9B47":{"transform":{"data":{"t":{"x":-285.295494,"y":-182.133598}},"keys":{"o":[{"t":0,"v":{"x":285.295494,"y":242.133598,"type":"corner"}},{"t":770,"v":{"x":285.295494,"y":182.133598,"type":"corner"}},{"t":2000,"v":{"x":285.295494,"y":182.133598,"type":"corner"}},{"t":3000,"v":{"x":285.295494,"y":242.13,"type":"corner"}}]}}},"eoLTNReZP9B52":{"transform":{"data":{"t":{"x":-285.670997,"y":-276.764602}},"keys":{"o":[{"t":0,"v":{"x":285.670998,"y":336.764603,"type":"corner"}},{"t":770,"v":{"x":285.670998,"y":276.764603,"type":"corner"}},{"t":2000,"v":{"x":285.670998,"y":276.764603,"type":"corner"}},{"t":3000,"v":{"x":285.670998,"y":336.76,"type":"corner"}}]}}},"eoLTNReZP9B61":{"opacity":[{"t":370,"v":0},{"t":770,"v":1},{"t":1700,"v":1},{"t":2100,"v":0}]},"eoLTNReZP9B77":{"transform":{"data":{"t":{"x":-285.296005,"y":-472.045898}},"keys":{"o":[{"t":0,"v":{"x":285.296005,"y":452.045899,"type":"corner"}},{"t":770,"v":{"x":285.296005,"y":472.045899,"type":"corner"}},{"t":2000,"v":{"x":285.296005,"y":472.045899,"type":"corner"}},{"t":3000,"v":{"x":285.296005,"y":452.05,"type":"corner"}}]}}},"eoLTNReZP9B80":{"transform":{"data":{"t":{"x":-285.5,"y":-70}},"keys":{"o":[{"t":0,"v":{"x":285.5,"y":110,"type":"corner"}},{"t":770,"v":{"x":285.5,"y":60,"type":"corner"}},{"t":2000,"v":{"x":285.5,"y":60,"type":"corner"}},{"t":3000,"v":{"x":285.5,"y":110,"type":"corner"}}]}}}},"s":"MPDA1ZGRjODNKYzVkNmMQzYzJkNWNhZDBjZjgAzOWI5NjkxRDkxOTE4FZDgzYzVjYWQzYzZjNBGQ1Y2FVZDBjZjgzOWRI5MjhkODNjYWQ1YzZQkM2MyZDVjYWQwY2ZkMNDgzOWI5MThkODNjNW2NhY2RjZDgzOWI5MjThkVDgzYzJjZGQ1YzZCkM2NmYzJkNWM2ODM5FYmM3YzJMY2RkNGM2OSGQ4M2Q0ZDFjNmM2YzYU4MzliOTI4ZDgzYzdIkMWQ0ODM5YjkyOTE5TMWRl"}],"options":"MBDAxMDg4MmY4MDgxNmBU3ZjgxMmY0NzJmNzkC3Y0Q2ZTcxMmY4YQ|"},'__SVGATOR_PLAYER__',window,document)
]]></script>
</svg>
